%TF.GenerationSoftware,KiCad,Pcbnew,10.0.4*%
%TF.CreationDate,2026-07-09T14:33:48+02:00*%
%TF.ProjectId,PowerLineSensorPCB,506f7765-724c-4696-9e65-53656e736f72,rev?*%
%TF.SameCoordinates,Original*%
%TF.FileFunction,Legend,Bot*%
%TF.FilePolarity,Positive*%
%FSLAX46Y46*%
G04 Gerber Fmt 4.6, Leading zero omitted, Abs format (unit mm)*
G04 Created by KiCad (PCBNEW 10.0.4) date 2026-07-09 14:33:48*
%MOMM*%
%LPD*%
G01*
G04 APERTURE LIST*
%ADD10C,0.100000*%
%ADD11C,0.150000*%
%ADD12C,0.120000*%
%ADD13C,0.200000*%
%TA.AperFunction,Profile*%
%ADD14C,0.050000*%
%TD*%
G04 APERTURE END LIST*
D10*
X108427580Y-126069925D02*
X108427580Y-126546115D01*
X108427580Y-126546115D02*
X109427580Y-126546115D01*
X109427580Y-125546115D02*
X109427580Y-125355639D01*
X109427580Y-125355639D02*
X109379961Y-125260401D01*
X109379961Y-125260401D02*
X109284723Y-125165163D01*
X109284723Y-125165163D02*
X109094247Y-125117544D01*
X109094247Y-125117544D02*
X108760914Y-125117544D01*
X108760914Y-125117544D02*
X108570438Y-125165163D01*
X108570438Y-125165163D02*
X108475200Y-125260401D01*
X108475200Y-125260401D02*
X108427580Y-125355639D01*
X108427580Y-125355639D02*
X108427580Y-125546115D01*
X108427580Y-125546115D02*
X108475200Y-125641353D01*
X108475200Y-125641353D02*
X108570438Y-125736591D01*
X108570438Y-125736591D02*
X108760914Y-125784210D01*
X108760914Y-125784210D02*
X109094247Y-125784210D01*
X109094247Y-125784210D02*
X109284723Y-125736591D01*
X109284723Y-125736591D02*
X109379961Y-125641353D01*
X109379961Y-125641353D02*
X109427580Y-125546115D01*
X108427580Y-124117544D02*
X108903771Y-124450877D01*
X108427580Y-124688972D02*
X109427580Y-124688972D01*
X109427580Y-124688972D02*
X109427580Y-124308020D01*
X109427580Y-124308020D02*
X109379961Y-124212782D01*
X109379961Y-124212782D02*
X109332342Y-124165163D01*
X109332342Y-124165163D02*
X109237104Y-124117544D01*
X109237104Y-124117544D02*
X109094247Y-124117544D01*
X109094247Y-124117544D02*
X108999009Y-124165163D01*
X108999009Y-124165163D02*
X108951390Y-124212782D01*
X108951390Y-124212782D02*
X108903771Y-124308020D01*
X108903771Y-124308020D02*
X108903771Y-124688972D01*
X108713295Y-123736591D02*
X108713295Y-123260401D01*
X108427580Y-123831829D02*
X109427580Y-123498496D01*
X109427580Y-123498496D02*
X108427580Y-123165163D01*
X203227180Y-124825312D02*
X203274800Y-124777693D01*
X203274800Y-124777693D02*
X203322419Y-124634836D01*
X203322419Y-124634836D02*
X203322419Y-124539598D01*
X203322419Y-124539598D02*
X203274800Y-124396741D01*
X203274800Y-124396741D02*
X203179561Y-124301503D01*
X203179561Y-124301503D02*
X203084323Y-124253884D01*
X203084323Y-124253884D02*
X202893847Y-124206265D01*
X202893847Y-124206265D02*
X202750990Y-124206265D01*
X202750990Y-124206265D02*
X202560514Y-124253884D01*
X202560514Y-124253884D02*
X202465276Y-124301503D01*
X202465276Y-124301503D02*
X202370038Y-124396741D01*
X202370038Y-124396741D02*
X202322419Y-124539598D01*
X202322419Y-124539598D02*
X202322419Y-124634836D01*
X202322419Y-124634836D02*
X202370038Y-124777693D01*
X202370038Y-124777693D02*
X202417657Y-124825312D01*
X203274800Y-125634836D02*
X203322419Y-125539598D01*
X203322419Y-125539598D02*
X203322419Y-125349122D01*
X203322419Y-125349122D02*
X203274800Y-125253884D01*
X203274800Y-125253884D02*
X203179561Y-125206265D01*
X203179561Y-125206265D02*
X202798609Y-125206265D01*
X202798609Y-125206265D02*
X202703371Y-125253884D01*
X202703371Y-125253884D02*
X202655752Y-125349122D01*
X202655752Y-125349122D02*
X202655752Y-125539598D01*
X202655752Y-125539598D02*
X202703371Y-125634836D01*
X202703371Y-125634836D02*
X202798609Y-125682455D01*
X202798609Y-125682455D02*
X202893847Y-125682455D01*
X202893847Y-125682455D02*
X202989085Y-125206265D01*
X203322419Y-126253884D02*
X203274800Y-126158646D01*
X203274800Y-126158646D02*
X203179561Y-126111027D01*
X203179561Y-126111027D02*
X202322419Y-126111027D01*
X203322419Y-126777694D02*
X203274800Y-126682456D01*
X203274800Y-126682456D02*
X203179561Y-126634837D01*
X203179561Y-126634837D02*
X202322419Y-126634837D01*
X202655752Y-127587218D02*
X203322419Y-127587218D01*
X202655752Y-127158647D02*
X203179561Y-127158647D01*
X203179561Y-127158647D02*
X203274800Y-127206266D01*
X203274800Y-127206266D02*
X203322419Y-127301504D01*
X203322419Y-127301504D02*
X203322419Y-127444361D01*
X203322419Y-127444361D02*
X203274800Y-127539599D01*
X203274800Y-127539599D02*
X203227180Y-127587218D01*
X203322419Y-128491980D02*
X202798609Y-128491980D01*
X202798609Y-128491980D02*
X202703371Y-128444361D01*
X202703371Y-128444361D02*
X202655752Y-128349123D01*
X202655752Y-128349123D02*
X202655752Y-128158647D01*
X202655752Y-128158647D02*
X202703371Y-128063409D01*
X203274800Y-128491980D02*
X203322419Y-128396742D01*
X203322419Y-128396742D02*
X203322419Y-128158647D01*
X203322419Y-128158647D02*
X203274800Y-128063409D01*
X203274800Y-128063409D02*
X203179561Y-128015790D01*
X203179561Y-128015790D02*
X203084323Y-128015790D01*
X203084323Y-128015790D02*
X202989085Y-128063409D01*
X202989085Y-128063409D02*
X202941466Y-128158647D01*
X202941466Y-128158647D02*
X202941466Y-128396742D01*
X202941466Y-128396742D02*
X202893847Y-128491980D01*
X203322419Y-128968171D02*
X202655752Y-128968171D01*
X202846228Y-128968171D02*
X202750990Y-129015790D01*
X202750990Y-129015790D02*
X202703371Y-129063409D01*
X202703371Y-129063409D02*
X202655752Y-129158647D01*
X202655752Y-129158647D02*
X202655752Y-129253885D01*
D11*
X163167438Y-106410588D02*
X163119819Y-106315350D01*
X163119819Y-106315350D02*
X163119819Y-106172493D01*
X163119819Y-106172493D02*
X163167438Y-106029636D01*
X163167438Y-106029636D02*
X163262676Y-105934398D01*
X163262676Y-105934398D02*
X163357914Y-105886779D01*
X163357914Y-105886779D02*
X163548390Y-105839160D01*
X163548390Y-105839160D02*
X163691247Y-105839160D01*
X163691247Y-105839160D02*
X163881723Y-105886779D01*
X163881723Y-105886779D02*
X163976961Y-105934398D01*
X163976961Y-105934398D02*
X164072200Y-106029636D01*
X164072200Y-106029636D02*
X164119819Y-106172493D01*
X164119819Y-106172493D02*
X164119819Y-106267731D01*
X164119819Y-106267731D02*
X164072200Y-106410588D01*
X164072200Y-106410588D02*
X164024580Y-106458207D01*
X164024580Y-106458207D02*
X163691247Y-106458207D01*
X163691247Y-106458207D02*
X163691247Y-106267731D01*
X164119819Y-106886779D02*
X163119819Y-106886779D01*
X163119819Y-106886779D02*
X164119819Y-107458207D01*
X164119819Y-107458207D02*
X163119819Y-107458207D01*
X164119819Y-107934398D02*
X163119819Y-107934398D01*
X163119819Y-107934398D02*
X164119819Y-108505826D01*
X164119819Y-108505826D02*
X163119819Y-108505826D01*
X164072200Y-108934398D02*
X164119819Y-109077255D01*
X164119819Y-109077255D02*
X164119819Y-109315350D01*
X164119819Y-109315350D02*
X164072200Y-109410588D01*
X164072200Y-109410588D02*
X164024580Y-109458207D01*
X164024580Y-109458207D02*
X163929342Y-109505826D01*
X163929342Y-109505826D02*
X163834104Y-109505826D01*
X163834104Y-109505826D02*
X163738866Y-109458207D01*
X163738866Y-109458207D02*
X163691247Y-109410588D01*
X163691247Y-109410588D02*
X163643628Y-109315350D01*
X163643628Y-109315350D02*
X163596009Y-109124874D01*
X163596009Y-109124874D02*
X163548390Y-109029636D01*
X163548390Y-109029636D02*
X163500771Y-108982017D01*
X163500771Y-108982017D02*
X163405533Y-108934398D01*
X163405533Y-108934398D02*
X163310295Y-108934398D01*
X163310295Y-108934398D02*
X163215057Y-108982017D01*
X163215057Y-108982017D02*
X163167438Y-109029636D01*
X163167438Y-109029636D02*
X163119819Y-109124874D01*
X163119819Y-109124874D02*
X163119819Y-109362969D01*
X163119819Y-109362969D02*
X163167438Y-109505826D01*
X119692857Y-127587200D02*
X117407143Y-127587200D01*
X118550000Y-128730057D02*
X118550000Y-126444342D01*
%TO.C,J13*%
D12*
X170140000Y-139710000D02*
X170140000Y-140350000D01*
X170140000Y-141870000D02*
X169510000Y-141870000D01*
X170140000Y-142510000D02*
X170140000Y-141870000D01*
X172860000Y-142460000D02*
X172860000Y-139760000D01*
%TO.C,R132*%
X142511359Y-141230000D02*
X142818641Y-141230000D01*
X142511359Y-141990000D02*
X142818641Y-141990000D01*
%TO.C,ANT1*%
D10*
X204000000Y-137700000D02*
X204000000Y-113950000D01*
D13*
X208500000Y-141900000D02*
X208500000Y-141900000D01*
X208500000Y-142000000D02*
X208500000Y-142000000D01*
X208500000Y-142000000D02*
X208500000Y-142000000D01*
D10*
X212000000Y-137700000D02*
X212000000Y-113950000D01*
D13*
X208500000Y-141900000D02*
G75*
G02*
X208500000Y-142000000I0J-50000D01*
G01*
X208500000Y-142000000D02*
G75*
G02*
X208500000Y-141900000I0J50000D01*
G01*
X208500000Y-142000000D02*
G75*
G02*
X208500000Y-141900000I0J50000D01*
G01*
%TO.C,J11*%
D12*
X132270000Y-140310000D02*
X132270000Y-143010000D01*
X134990000Y-140260000D02*
X134990000Y-140900000D01*
X134990000Y-140900000D02*
X135620000Y-140900000D01*
X134990000Y-143060000D02*
X134990000Y-142420000D01*
%TO.C,TP1*%
X163100000Y-113100000D02*
G75*
G02*
X161700000Y-113100000I-700000J0D01*
G01*
X161700000Y-113100000D02*
G75*
G02*
X163100000Y-113100000I700000J0D01*
G01*
%TO.C,R133*%
X172071359Y-143720000D02*
X172378641Y-143720000D01*
X172071359Y-144480000D02*
X172378641Y-144480000D01*
%TO.C,ANT2*%
D10*
X164988000Y-101772000D02*
X164988000Y-114772000D01*
X164988000Y-114772000D02*
X177988000Y-114772000D01*
X177988000Y-101772000D02*
X164988000Y-101772000D01*
X177988000Y-114772000D02*
X177988000Y-101772000D01*
%TO.C,ANT3*%
D12*
X100550000Y-110200000D02*
X107649999Y-110200000D01*
X100550001Y-140400000D02*
X100550000Y-110200000D01*
X107649999Y-110200000D02*
X107649999Y-130300000D01*
X107650000Y-130333333D02*
X107650000Y-140400000D01*
X107650000Y-140400000D02*
X100550001Y-140400000D01*
%TO.C,J12*%
X161830000Y-142750000D02*
X161830000Y-145450000D01*
X164550000Y-142700000D02*
X164550000Y-143340000D01*
X164550000Y-143340000D02*
X165180000Y-143340000D01*
X164550000Y-145500000D02*
X164550000Y-144860000D01*
%TO.C,R134*%
X162618641Y-140730000D02*
X162311359Y-140730000D01*
X162618641Y-141490000D02*
X162311359Y-141490000D01*
%TO.C,BT1*%
X120040000Y-116340000D02*
X120040000Y-138460000D01*
X120040000Y-138460000D02*
X198960000Y-138460000D01*
X198960000Y-116340000D02*
X120040000Y-116340000D01*
X198960000Y-138460000D02*
X198960000Y-116340000D01*
%TD*%
D14*
X100000000Y-100000000D02*
X215000000Y-100000000D01*
X215000000Y-147000000D01*
X100000000Y-147000000D01*
X100000000Y-100000000D01*
M02*
