%TF.GenerationSoftware,KiCad,Pcbnew,10.0.4*%
%TF.CreationDate,2026-07-09T14:33:48+02:00*%
%TF.ProjectId,PowerLineSensorPCB,506f7765-724c-4696-9e65-53656e736f72,rev?*%
%TF.SameCoordinates,Original*%
%TF.FileFunction,Soldermask,Bot*%
%TF.FilePolarity,Negative*%
%FSLAX46Y46*%
G04 Gerber Fmt 4.6, Leading zero omitted, Abs format (unit mm)*
G04 Created by KiCad (PCBNEW 10.0.4) date 2026-07-09 14:33:48*
%MOMM*%
%LPD*%
G01*
G04 APERTURE LIST*
G04 Aperture macros list*
%AMRoundRect*
0 Rectangle with rounded corners*
0 $1 Rounding radius*
0 $2 $3 $4 $5 $6 $7 $8 $9 X,Y pos of 4 corners*
0 Add a 4 corners polygon primitive as box body*
4,1,4,$2,$3,$4,$5,$6,$7,$8,$9,$2,$3,0*
0 Add four circle primitives for the rounded corners*
1,1,$1+$1,$2,$3*
1,1,$1+$1,$4,$5*
1,1,$1+$1,$6,$7*
1,1,$1+$1,$8,$9*
0 Add four rect primitives between the rounded corners*
20,1,$1+$1,$2,$3,$4,$5,0*
20,1,$1+$1,$4,$5,$6,$7,0*
20,1,$1+$1,$6,$7,$8,$9,0*
20,1,$1+$1,$8,$9,$2,$3,0*%
%AMRotRect*
0 Rectangle, with rotation*
0 The origin of the aperture is its center*
0 $1 length*
0 $2 width*
0 $3 Rotation angle, in degrees counterclockwise*
0 Add horizontal line*
21,1,$1,$2,0,0,$3*%
G04 Aperture macros list end*
%ADD10C,0.650000*%
%ADD11O,1.000000X2.100000*%
%ADD12O,1.000000X1.600000*%
%ADD13C,1.400000*%
%ADD14C,5.600000*%
%ADD15R,0.850000X0.850000*%
%ADD16C,0.850000*%
%ADD17R,1.700000X1.700000*%
%ADD18C,1.700000*%
%ADD19RotRect,1.192000X1.192000X45.000000*%
%ADD20C,1.192000*%
%ADD21RoundRect,0.250000X-0.275000X-0.250000X0.275000X-0.250000X0.275000X0.250000X-0.275000X0.250000X0*%
%ADD22RoundRect,0.250000X-0.850000X-0.275000X0.850000X-0.275000X0.850000X0.275000X-0.850000X0.275000X0*%
%ADD23RoundRect,0.135000X-0.135000X-0.185000X0.135000X-0.185000X0.135000X0.185000X-0.135000X0.185000X0*%
%ADD24R,8.600000X3.100000*%
%ADD25R,3.100000X8.600000*%
%ADD26R,8.600000X1.600000*%
%ADD27R,3.600000X1.600000*%
%ADD28RoundRect,0.250000X0.275000X0.250000X-0.275000X0.250000X-0.275000X-0.250000X0.275000X-0.250000X0*%
%ADD29RoundRect,0.250000X0.850000X0.275000X-0.850000X0.275000X-0.850000X-0.275000X0.850000X-0.275000X0*%
%ADD30C,1.000000*%
%ADD31C,1.575000*%
%ADD32RoundRect,0.250000X2.300000X1.150000X-2.300000X1.150000X-2.300000X-1.150000X2.300000X-1.150000X0*%
%ADD33RoundRect,0.135000X0.135000X0.185000X-0.135000X0.185000X-0.135000X-0.185000X0.135000X-0.185000X0*%
%ADD34C,3.200000*%
%ADD35RoundRect,0.249999X-1.250001X-1.250001X1.250001X-1.250001X1.250001X1.250001X-1.250001X1.250001X0*%
%ADD36C,3.000000*%
%TA.AperFunction,Profile*%
%ADD37C,0.050000*%
%TD*%
G04 APERTURE END LIST*
%TO.C,J13*%
G36*
X170510000Y-140170000D02*
G01*
X172600000Y-140170000D01*
X172600000Y-142050000D01*
X170510000Y-142050000D01*
X170510000Y-140170000D01*
G37*
%TO.C,J11*%
G36*
X132530000Y-140720000D02*
G01*
X134620000Y-140720000D01*
X134620000Y-142600000D01*
X132530000Y-142600000D01*
X132530000Y-140720000D01*
G37*
%TO.C,J12*%
G36*
X162090000Y-143160000D02*
G01*
X164180000Y-143160000D01*
X164180000Y-145040000D01*
X162090000Y-145040000D01*
X162090000Y-143160000D01*
G37*
%TD*%
D10*
%TO.C,J6*%
X143110000Y-105820000D03*
X148890000Y-105820000D03*
D11*
X150325000Y-106320000D03*
D12*
X150325000Y-102140000D03*
D11*
X141675000Y-106320000D03*
D12*
X141675000Y-102140000D03*
%TD*%
D13*
%TO.C,TH1*%
X157870000Y-113160000D03*
X160410000Y-113160000D03*
%TD*%
D14*
%TO.C,H3*%
X125000000Y-104000000D03*
%TD*%
D15*
%TO.C,J14*%
X189100000Y-101700000D03*
D16*
X188100000Y-101700000D03*
X187100000Y-101700000D03*
X186100000Y-101700000D03*
X185100000Y-101700000D03*
X184100000Y-101700000D03*
%TD*%
D14*
%TO.C,H2*%
X194000000Y-143000000D03*
%TD*%
D17*
%TO.C,J5*%
X157710000Y-144800000D03*
D18*
X155170000Y-144800000D03*
X152630000Y-144800000D03*
X150090000Y-144800000D03*
%TD*%
D14*
%TO.C,H4*%
X194000000Y-104000000D03*
%TD*%
D17*
%TO.C,J8*%
X130560000Y-102200000D03*
D18*
X133100000Y-102200000D03*
X135640000Y-102200000D03*
X138180000Y-102200000D03*
%TD*%
D19*
%TO.C,U2*%
X156232233Y-107767767D03*
D20*
X159824335Y-107767767D03*
X156232233Y-104175665D03*
X159824335Y-104175665D03*
%TD*%
D21*
%TO.C,J13*%
X169975000Y-141110000D03*
D22*
X171500000Y-139635000D03*
X171500000Y-142585000D03*
%TD*%
D23*
%TO.C,R132*%
X142155000Y-141610000D03*
X143175000Y-141610000D03*
%TD*%
D24*
%TO.C,ANT1*%
X208000000Y-139950000D03*
D25*
X208000000Y-125850000D03*
D26*
X208000000Y-112500000D03*
D27*
X205500000Y-110200000D03*
D24*
X208000000Y-104450000D03*
%TD*%
D28*
%TO.C,J11*%
X135155000Y-141660000D03*
D29*
X133630000Y-143135000D03*
X133630000Y-140185000D03*
%TD*%
D30*
%TO.C,TP1*%
X162400000Y-113100000D03*
%TD*%
D23*
%TO.C,R133*%
X171715000Y-144100000D03*
X172735000Y-144100000D03*
%TD*%
D31*
%TO.C,ANT2*%
X171488000Y-108972000D03*
%TD*%
D32*
%TO.C,ANT3*%
X104100000Y-138000000D03*
X104100000Y-112600000D03*
%TD*%
D28*
%TO.C,J12*%
X164715000Y-144100000D03*
D29*
X163190000Y-145575000D03*
X163190000Y-142625000D03*
%TD*%
D33*
%TO.C,R134*%
X162975000Y-141110000D03*
X161955000Y-141110000D03*
%TD*%
D34*
%TO.C,BT1*%
X131495000Y-127400000D03*
X187105000Y-127400000D03*
D35*
X123050000Y-127400000D03*
D36*
X195950000Y-127400000D03*
%TD*%
D37*
X100000000Y-100000000D02*
X215000000Y-100000000D01*
X215000000Y-147000000D01*
X100000000Y-147000000D01*
X100000000Y-100000000D01*
M02*
