%TF.GenerationSoftware,KiCad,Pcbnew,10.0.4*%
%TF.CreationDate,2026-07-09T14:33:48+02:00*%
%TF.ProjectId,PowerLineSensorPCB,506f7765-724c-4696-9e65-53656e736f72,rev?*%
%TF.SameCoordinates,Original*%
%TF.FileFunction,Paste,Top*%
%TF.FilePolarity,Positive*%
%FSLAX46Y46*%
G04 Gerber Fmt 4.6, Leading zero omitted, Abs format (unit mm)*
G04 Created by KiCad (PCBNEW 10.0.4) date 2026-07-09 14:33:48*
%MOMM*%
%LPD*%
G01*
G04 APERTURE LIST*
G04 Aperture macros list*
%AMRoundRect*
0 Rectangle with rounded corners*
0 $1 Rounding radius*
0 $2 $3 $4 $5 $6 $7 $8 $9 X,Y pos of 4 corners*
0 Add a 4 corners polygon primitive as box body*
4,1,4,$2,$3,$4,$5,$6,$7,$8,$9,$2,$3,0*
0 Add four circle primitives for the rounded corners*
1,1,$1+$1,$2,$3*
1,1,$1+$1,$4,$5*
1,1,$1+$1,$6,$7*
1,1,$1+$1,$8,$9*
0 Add four rect primitives between the rounded corners*
20,1,$1+$1,$2,$3,$4,$5,0*
20,1,$1+$1,$4,$5,$6,$7,0*
20,1,$1+$1,$6,$7,$8,$9,0*
20,1,$1+$1,$8,$9,$2,$3,0*%
%AMFreePoly0*
4,1,15,0.125000,-0.087500,0.122598,-0.087500,0.122598,-0.111886,0.103934,-0.156946,0.069446,-0.191434,0.024386,-0.210098,-0.024386,-0.210098,-0.069446,-0.191434,-0.103934,-0.156946,-0.122598,-0.111886,-0.122598,-0.087500,-0.125000,-0.087500,-0.125000,0.087500,0.125000,0.087500,0.125000,-0.087500,0.125000,-0.087500,$1*%
%AMFreePoly1*
4,1,15,0.125000,-0.087500,0.122598,-0.087500,0.122598,-0.099386,0.103934,-0.144446,0.069446,-0.178934,0.024386,-0.197598,-0.024386,-0.197598,-0.069446,-0.178934,-0.103934,-0.144446,-0.122598,-0.099386,-0.122598,-0.087500,-0.125000,-0.087500,-0.125000,0.087500,0.125000,0.087500,0.125000,-0.087500,0.125000,-0.087500,$1*%
G04 Aperture macros list end*
%ADD10C,0.152011*%
%ADD11C,0.100000*%
%ADD12RoundRect,0.150000X0.150000X0.575000X-0.150000X0.575000X-0.150000X-0.575000X0.150000X-0.575000X0*%
%ADD13RoundRect,0.075000X0.075000X0.650000X-0.075000X0.650000X-0.075000X-0.650000X0.075000X-0.650000X0*%
%ADD14R,0.800000X1.500000*%
%ADD15RoundRect,0.362500X0.362500X0.637500X-0.362500X0.637500X-0.362500X-0.637500X0.362500X-0.637500X0*%
%ADD16C,0.200000*%
%ADD17RoundRect,0.140000X0.140000X0.170000X-0.140000X0.170000X-0.140000X-0.170000X0.140000X-0.170000X0*%
%ADD18RoundRect,0.237500X0.237500X-0.250000X0.237500X0.250000X-0.237500X0.250000X-0.237500X-0.250000X0*%
%ADD19RoundRect,0.140000X0.170000X-0.140000X0.170000X0.140000X-0.170000X0.140000X-0.170000X-0.140000X0*%
%ADD20RoundRect,0.135000X-0.185000X0.135000X-0.185000X-0.135000X0.185000X-0.135000X0.185000X0.135000X0*%
%ADD21RoundRect,0.135000X-0.135000X-0.185000X0.135000X-0.185000X0.135000X0.185000X-0.135000X0.185000X0*%
%ADD22R,0.000001X0.100001*%
%ADD23FreePoly0,90.000000*%
%ADD24FreePoly1,90.000000*%
%ADD25RoundRect,0.135000X0.135000X0.185000X-0.135000X0.185000X-0.135000X-0.185000X0.135000X-0.185000X0*%
%ADD26RoundRect,0.135000X0.185000X-0.135000X0.185000X0.135000X-0.185000X0.135000X-0.185000X-0.135000X0*%
%ADD27RoundRect,0.218750X0.256250X-0.218750X0.256250X0.218750X-0.256250X0.218750X-0.256250X-0.218750X0*%
%ADD28RoundRect,0.175000X0.725000X0.175000X-0.725000X0.175000X-0.725000X-0.175000X0.725000X-0.175000X0*%
%ADD29RoundRect,0.175000X-0.175000X0.725000X-0.175000X-0.725000X0.175000X-0.725000X0.175000X0.725000X0*%
%ADD30RoundRect,0.050000X-0.100000X-0.250000X0.100000X-0.250000X0.100000X0.250000X-0.100000X0.250000X0*%
%ADD31RoundRect,0.250000X0.250000X-0.275000X0.250000X0.275000X-0.250000X0.275000X-0.250000X-0.275000X0*%
%ADD32RoundRect,0.250000X0.275000X-0.850000X0.275000X0.850000X-0.275000X0.850000X-0.275000X-0.850000X0*%
%ADD33RoundRect,0.140000X-0.170000X0.140000X-0.170000X-0.140000X0.170000X-0.140000X0.170000X0.140000X0*%
%ADD34RoundRect,0.250000X-0.250000X0.275000X-0.250000X-0.275000X0.250000X-0.275000X0.250000X0.275000X0*%
%ADD35RoundRect,0.250000X-0.275000X0.850000X-0.275000X-0.850000X0.275000X-0.850000X0.275000X0.850000X0*%
%ADD36RoundRect,0.250000X-0.650000X0.325000X-0.650000X-0.325000X0.650000X-0.325000X0.650000X0.325000X0*%
%ADD37RoundRect,0.140000X-0.140000X-0.170000X0.140000X-0.170000X0.140000X0.170000X-0.140000X0.170000X0*%
%ADD38RoundRect,0.050000X-0.250000X0.100000X-0.250000X-0.100000X0.250000X-0.100000X0.250000X0.100000X0*%
%ADD39RoundRect,0.150000X0.150000X0.625000X-0.150000X0.625000X-0.150000X-0.625000X0.150000X-0.625000X0*%
%ADD40RoundRect,0.250000X0.350000X0.650000X-0.350000X0.650000X-0.350000X-0.650000X0.350000X-0.650000X0*%
%ADD41RoundRect,0.075000X-0.175000X0.075000X-0.175000X-0.075000X0.175000X-0.075000X0.175000X0.075000X0*%
%ADD42RoundRect,0.250000X-0.900000X1.000000X-0.900000X-1.000000X0.900000X-1.000000X0.900000X1.000000X0*%
%ADD43RoundRect,0.075000X0.175000X-0.075000X0.175000X0.075000X-0.175000X0.075000X-0.175000X-0.075000X0*%
%ADD44RoundRect,0.150000X-0.825000X-0.150000X0.825000X-0.150000X0.825000X0.150000X-0.825000X0.150000X0*%
%ADD45RoundRect,0.147500X-0.147500X-0.172500X0.147500X-0.172500X0.147500X0.172500X-0.147500X0.172500X0*%
%ADD46RoundRect,0.147500X-0.172500X0.147500X-0.172500X-0.147500X0.172500X-0.147500X0.172500X0.147500X0*%
%ADD47RoundRect,0.100000X-0.400000X-0.700000X0.400000X-0.700000X0.400000X0.700000X-0.400000X0.700000X0*%
%ADD48RoundRect,0.120000X-0.120000X0.200000X-0.120000X-0.200000X0.120000X-0.200000X0.120000X0.200000X0*%
%ADD49RoundRect,0.062500X-0.212500X0.062500X-0.212500X-0.062500X0.212500X-0.062500X0.212500X0.062500X0*%
%ADD50RoundRect,0.227500X-0.227500X-0.227500X0.227500X-0.227500X0.227500X0.227500X-0.227500X0.227500X0*%
%ADD51RoundRect,0.050000X-0.350000X-0.050000X0.350000X-0.050000X0.350000X0.050000X-0.350000X0.050000X0*%
%ADD52RoundRect,0.050000X-0.050000X-0.350000X0.050000X-0.350000X0.050000X0.350000X-0.050000X0.350000X0*%
%ADD53RoundRect,0.182500X-0.322500X0.182500X-0.322500X-0.182500X0.322500X-0.182500X0.322500X0.182500X0*%
%ADD54RoundRect,0.062500X-0.062500X0.312500X-0.062500X-0.312500X0.062500X-0.312500X0.062500X0.312500X0*%
%ADD55RoundRect,0.200000X-0.200000X-1.150000X0.200000X-1.150000X0.200000X1.150000X-0.200000X1.150000X0*%
%ADD56RoundRect,0.250000X0.650000X-0.325000X0.650000X0.325000X-0.650000X0.325000X-0.650000X-0.325000X0*%
%ADD57RoundRect,0.250000X0.250000X-0.475000X0.250000X0.475000X-0.250000X0.475000X-0.250000X-0.475000X0*%
%ADD58RoundRect,0.250000X-0.615000X0.435000X-0.615000X-0.435000X0.615000X-0.435000X0.615000X0.435000X0*%
%ADD59RoundRect,0.125000X-0.125000X0.200000X-0.125000X-0.200000X0.125000X-0.200000X0.125000X0.200000X0*%
%ADD60RoundRect,0.250000X-0.450000X-0.350000X0.450000X-0.350000X0.450000X0.350000X-0.450000X0.350000X0*%
%ADD61RoundRect,0.250000X0.650000X-1.000000X0.650000X1.000000X-0.650000X1.000000X-0.650000X-1.000000X0*%
%ADD62RoundRect,0.225000X-0.250000X0.225000X-0.250000X-0.225000X0.250000X-0.225000X0.250000X0.225000X0*%
%ADD63RoundRect,0.050000X0.100000X0.250000X-0.100000X0.250000X-0.100000X-0.250000X0.100000X-0.250000X0*%
%ADD64RoundRect,0.250000X0.275000X0.250000X-0.275000X0.250000X-0.275000X-0.250000X0.275000X-0.250000X0*%
%ADD65RoundRect,0.250000X0.850000X0.275000X-0.850000X0.275000X-0.850000X-0.275000X0.850000X-0.275000X0*%
%ADD66RoundRect,0.250000X-1.000000X-0.650000X1.000000X-0.650000X1.000000X0.650000X-1.000000X0.650000X0*%
%ADD67RoundRect,0.250000X0.475000X0.250000X-0.475000X0.250000X-0.475000X-0.250000X0.475000X-0.250000X0*%
%ADD68RoundRect,0.147500X0.172500X-0.147500X0.172500X0.147500X-0.172500X0.147500X-0.172500X-0.147500X0*%
%ADD69RoundRect,0.035000X0.315000X-0.315000X0.315000X0.315000X-0.315000X0.315000X-0.315000X-0.315000X0*%
%ADD70RoundRect,0.015000X0.135000X-0.210000X0.135000X0.210000X-0.135000X0.210000X-0.135000X-0.210000X0*%
%ADD71RoundRect,0.015000X0.210000X0.135000X-0.210000X0.135000X-0.210000X-0.135000X0.210000X-0.135000X0*%
%ADD72RoundRect,0.015000X-0.210000X-0.135000X0.210000X-0.135000X0.210000X0.135000X-0.210000X0.135000X0*%
%ADD73RoundRect,0.015000X-0.135000X-0.135000X0.135000X-0.135000X0.135000X0.135000X-0.135000X0.135000X0*%
%ADD74RoundRect,0.015000X0.135000X0.135000X-0.135000X0.135000X-0.135000X-0.135000X0.135000X-0.135000X0*%
%ADD75RoundRect,0.080000X0.720000X-0.720000X0.720000X0.720000X-0.720000X0.720000X-0.720000X-0.720000X0*%
%ADD76RoundRect,0.080000X0.895000X-0.720000X0.895000X0.720000X-0.895000X0.720000X-0.895000X-0.720000X0*%
%ADD77R,0.350000X0.375000*%
%ADD78R,0.375000X0.350000*%
%ADD79R,1.100000X0.400000*%
%ADD80RoundRect,0.225000X-0.225000X-0.375000X0.225000X-0.375000X0.225000X0.375000X-0.225000X0.375000X0*%
%ADD81RoundRect,0.250000X-0.400000X-0.650000X0.400000X-0.650000X0.400000X0.650000X-0.400000X0.650000X0*%
%ADD82R,0.425000X0.515000*%
%ADD83R,0.425000X0.275000*%
%ADD84R,1.550000X0.745000*%
%ADD85R,1.550000X0.670000*%
%ADD86RoundRect,0.250000X-0.435000X-0.615000X0.435000X-0.615000X0.435000X0.615000X-0.435000X0.615000X0*%
%ADD87RoundRect,0.125000X-0.200000X-0.125000X0.200000X-0.125000X0.200000X0.125000X-0.200000X0.125000X0*%
%TA.AperFunction,Profile*%
%ADD88C,0.050000*%
%TD*%
G04 APERTURE END LIST*
%TO.C,U1*%
D10*
X168813505Y-103162500D02*
G75*
G02*
X168661495Y-103162500I-76005J0D01*
G01*
X168661495Y-103162500D02*
G75*
G02*
X168813505Y-103162500I76005J0D01*
G01*
X168813505Y-103662500D02*
G75*
G02*
X168661495Y-103662500I-76005J0D01*
G01*
X168661495Y-103662500D02*
G75*
G02*
X168813505Y-103662500I76005J0D01*
G01*
X168813505Y-104162500D02*
G75*
G02*
X168661495Y-104162500I-76005J0D01*
G01*
X168661495Y-104162500D02*
G75*
G02*
X168813505Y-104162500I76005J0D01*
G01*
X168813505Y-104662500D02*
G75*
G02*
X168661495Y-104662500I-76005J0D01*
G01*
X168661495Y-104662500D02*
G75*
G02*
X168813505Y-104662500I76005J0D01*
G01*
X168813505Y-105162500D02*
G75*
G02*
X168661495Y-105162500I-76005J0D01*
G01*
X168661495Y-105162500D02*
G75*
G02*
X168813505Y-105162500I76005J0D01*
G01*
X169313505Y-103662500D02*
G75*
G02*
X169161495Y-103662500I-76005J0D01*
G01*
X169161495Y-103662500D02*
G75*
G02*
X169313505Y-103662500I76005J0D01*
G01*
X169313505Y-104162500D02*
G75*
G02*
X169161495Y-104162500I-76005J0D01*
G01*
X169161495Y-104162500D02*
G75*
G02*
X169313505Y-104162500I76005J0D01*
G01*
X169313505Y-104662500D02*
G75*
G02*
X169161495Y-104662500I-76005J0D01*
G01*
X169161495Y-104662500D02*
G75*
G02*
X169313505Y-104662500I76005J0D01*
G01*
X169813505Y-103162500D02*
G75*
G02*
X169661495Y-103162500I-76005J0D01*
G01*
X169661495Y-103162500D02*
G75*
G02*
X169813505Y-103162500I76005J0D01*
G01*
X169813505Y-103662500D02*
G75*
G02*
X169661495Y-103662500I-76005J0D01*
G01*
X169661495Y-103662500D02*
G75*
G02*
X169813505Y-103662500I76005J0D01*
G01*
X169813505Y-104162500D02*
G75*
G02*
X169661495Y-104162500I-76005J0D01*
G01*
X169661495Y-104162500D02*
G75*
G02*
X169813505Y-104162500I76005J0D01*
G01*
X169813505Y-104662500D02*
G75*
G02*
X169661495Y-104662500I-76005J0D01*
G01*
X169661495Y-104662500D02*
G75*
G02*
X169813505Y-104662500I76005J0D01*
G01*
X169813505Y-105162500D02*
G75*
G02*
X169661495Y-105162500I-76005J0D01*
G01*
X169661495Y-105162500D02*
G75*
G02*
X169813505Y-105162500I76005J0D01*
G01*
%TO.C,L9*%
D11*
X158750416Y-116060000D02*
G75*
G02*
X158509584Y-116060000I-120416J0D01*
G01*
X158509584Y-116060000D02*
G75*
G02*
X158750416Y-116060000I120416J0D01*
G01*
%TD*%
D12*
%TO.C,J6*%
X149250000Y-107045000D03*
X148450000Y-107045000D03*
D13*
X147250000Y-107045000D03*
X146250000Y-107045000D03*
X145750000Y-107045000D03*
X144750000Y-107045000D03*
D12*
X143550000Y-107045000D03*
X142750000Y-107045000D03*
X142750000Y-107045000D03*
X143550000Y-107045000D03*
D13*
X144250000Y-107045000D03*
X145250000Y-107045000D03*
X146750000Y-107045000D03*
X147750000Y-107045000D03*
D12*
X148450000Y-107045000D03*
X149250000Y-107045000D03*
%TD*%
D14*
%TO.C,J2*%
X170925000Y-141200000D03*
X169825000Y-141200000D03*
X168725000Y-141200000D03*
X167625000Y-141200000D03*
X166525000Y-141200000D03*
X165425000Y-141200000D03*
X164325000Y-141200000D03*
X163225000Y-141200000D03*
D15*
X174595000Y-143800000D03*
X174595000Y-135500000D03*
X160845000Y-143800000D03*
X160845000Y-135500000D03*
%TD*%
D16*
%TO.C,U10*%
X123000000Y-122500000D03*
X123400000Y-122500000D03*
X123000000Y-122900000D03*
X123400000Y-122900000D03*
X123000000Y-123300000D03*
X123400000Y-123300000D03*
X123000000Y-123700000D03*
X123400000Y-123700000D03*
%TD*%
D17*
%TO.C,C43*%
X122720000Y-125000000D03*
X123680000Y-125000000D03*
%TD*%
D18*
%TO.C,TH2*%
X122500000Y-117912500D03*
X122500000Y-116087500D03*
%TD*%
D19*
%TO.C,C23*%
X164800000Y-126420000D03*
X164800000Y-127380000D03*
%TD*%
D17*
%TO.C,C24*%
X163120000Y-129300000D03*
X164080000Y-129300000D03*
%TD*%
D20*
%TO.C,R31*%
X157460000Y-115930000D03*
X157460000Y-116950000D03*
%TD*%
%TO.C,R68*%
X147000000Y-136990000D03*
X147000000Y-138010000D03*
%TD*%
D21*
%TO.C,R38*%
X160740000Y-129200000D03*
X161760000Y-129200000D03*
%TD*%
%TO.C,R115*%
X192670000Y-123400000D03*
X193690000Y-123400000D03*
%TD*%
D20*
%TO.C,R51*%
X164300000Y-104290000D03*
X164300000Y-105310000D03*
%TD*%
D22*
%TO.C,U1*%
X168050000Y-103225000D03*
X168050000Y-103850000D03*
X168050000Y-104475000D03*
X168050000Y-105100000D03*
X168650000Y-103225000D03*
X168650000Y-103850000D03*
X168650000Y-104475000D03*
X168650000Y-105100000D03*
X169175000Y-103225000D03*
X169175000Y-103850000D03*
X169175000Y-104475000D03*
X169175000Y-105100000D03*
X169700000Y-103225000D03*
X169700000Y-103850000D03*
X169700000Y-104475000D03*
X169700000Y-105100000D03*
D23*
X167637500Y-103162500D03*
D24*
X167637500Y-103662500D03*
D23*
X167637500Y-104162500D03*
X167637500Y-104662500D03*
D24*
X167637500Y-105162500D03*
%TD*%
D25*
%TO.C,R93*%
X178110000Y-112250000D03*
X177090000Y-112250000D03*
%TD*%
D26*
%TO.C,R23*%
X162600000Y-115810000D03*
X162600000Y-114790000D03*
%TD*%
%TO.C,R75*%
X139100000Y-128700000D03*
X139100000Y-127680000D03*
%TD*%
D27*
%TO.C,FB1*%
X190300000Y-128587500D03*
X190300000Y-127012500D03*
%TD*%
D21*
%TO.C,R87*%
X163680000Y-124800000D03*
X164700000Y-124800000D03*
%TD*%
D25*
%TO.C,R14*%
X160410000Y-114800000D03*
X159390000Y-114800000D03*
%TD*%
D20*
%TO.C,R136*%
X135525000Y-119140000D03*
X135525000Y-120160000D03*
%TD*%
D21*
%TO.C,R39*%
X162090000Y-126900000D03*
X163110000Y-126900000D03*
%TD*%
D26*
%TO.C,R84*%
X181500000Y-110360000D03*
X181500000Y-109340000D03*
%TD*%
D28*
%TO.C,U8*%
X130200000Y-132040000D03*
X130200000Y-133040000D03*
X130200000Y-134040000D03*
X130200000Y-135040000D03*
X130200000Y-136040000D03*
X130200000Y-137040000D03*
X130200000Y-138040000D03*
X130200000Y-139040000D03*
X130200000Y-140040000D03*
X130200000Y-141040000D03*
X130200000Y-142040000D03*
X130200000Y-143040000D03*
D29*
X138100000Y-145190000D03*
X139100000Y-145190000D03*
X140100000Y-145190000D03*
X141100000Y-145190000D03*
D28*
X145000000Y-143040000D03*
X145000000Y-142040000D03*
X145000000Y-141040000D03*
X145000000Y-136040000D03*
X145000000Y-135040000D03*
X145000000Y-134040000D03*
X145000000Y-133040000D03*
X145000000Y-132040000D03*
D29*
X141100000Y-130390000D03*
X140100000Y-130390000D03*
X139100000Y-130390000D03*
X138100000Y-130390000D03*
X137100000Y-130390000D03*
X136100000Y-130390000D03*
X135100000Y-130390000D03*
X134100000Y-130390000D03*
%TD*%
D20*
%TO.C,R29*%
X143600000Y-110140000D03*
X143600000Y-111160000D03*
%TD*%
%TO.C,R22*%
X166900000Y-114090000D03*
X166900000Y-115110000D03*
%TD*%
D21*
%TO.C,R66*%
X146790000Y-142600000D03*
X147810000Y-142600000D03*
%TD*%
%TO.C,R57*%
X184690000Y-108400000D03*
X185710000Y-108400000D03*
%TD*%
D25*
%TO.C,R13*%
X153510000Y-128500000D03*
X152490000Y-128500000D03*
%TD*%
D20*
%TO.C,R100*%
X184700000Y-109290000D03*
X184700000Y-110310000D03*
%TD*%
D30*
%TO.C,D13*%
X135000000Y-104900000D03*
X135700000Y-104900000D03*
%TD*%
D25*
%TO.C,R36*%
X165610000Y-131000000D03*
X164590000Y-131000000D03*
%TD*%
D31*
%TO.C,J3*%
X125800000Y-136725000D03*
D32*
X124325000Y-135200000D03*
X127275000Y-135200000D03*
%TD*%
D26*
%TO.C,R111*%
X186700000Y-110310000D03*
X186700000Y-109290000D03*
%TD*%
D21*
%TO.C,R89*%
X162790000Y-125800000D03*
X163810000Y-125800000D03*
%TD*%
D20*
%TO.C,R30*%
X147700000Y-108890000D03*
X147700000Y-109910000D03*
%TD*%
D26*
%TO.C,R18*%
X162600000Y-113120000D03*
X162600000Y-112100000D03*
%TD*%
D33*
%TO.C,C25*%
X154200000Y-114820000D03*
X154200000Y-115780000D03*
%TD*%
D20*
%TO.C,R28*%
X151900000Y-102830000D03*
X151900000Y-103850000D03*
%TD*%
D34*
%TO.C,J7*%
X195500000Y-117400000D03*
D35*
X196975000Y-118925000D03*
X194025000Y-118925000D03*
%TD*%
D21*
%TO.C,R63*%
X146790000Y-145700000D03*
X147810000Y-145700000D03*
%TD*%
D17*
%TO.C,C21*%
X164730000Y-116150000D03*
X163770000Y-116150000D03*
%TD*%
D20*
%TO.C,R54*%
X178300000Y-125640000D03*
X178300000Y-126660000D03*
%TD*%
D21*
%TO.C,R99*%
X163190000Y-110500000D03*
X164210000Y-110500000D03*
%TD*%
D20*
%TO.C,R137*%
X194500000Y-110240000D03*
X194500000Y-111260000D03*
%TD*%
D26*
%TO.C,R110*%
X187760000Y-107350000D03*
X187760000Y-106330000D03*
%TD*%
D25*
%TO.C,R91*%
X178110000Y-110250000D03*
X177090000Y-110250000D03*
%TD*%
D20*
%TO.C,R85*%
X180500000Y-109340000D03*
X180500000Y-110360000D03*
%TD*%
D36*
%TO.C,C1*%
X129900000Y-114725000D03*
X129900000Y-117675000D03*
%TD*%
D20*
%TO.C,R117*%
X180300000Y-125640000D03*
X180300000Y-126660000D03*
%TD*%
D25*
%TO.C,R8*%
X132910000Y-119900000D03*
X131890000Y-119900000D03*
%TD*%
D19*
%TO.C,C20*%
X138100000Y-123980000D03*
X138100000Y-123020000D03*
%TD*%
D20*
%TO.C,R16*%
X166900000Y-111490000D03*
X166900000Y-112510000D03*
%TD*%
D33*
%TO.C,C18*%
X166350000Y-103495000D03*
X166350000Y-104455000D03*
%TD*%
D26*
%TO.C,R19*%
X164870000Y-115220000D03*
X164870000Y-114200000D03*
%TD*%
D20*
%TO.C,R20*%
X164770000Y-112100000D03*
X164770000Y-113120000D03*
%TD*%
D37*
%TO.C,C22*%
X165820000Y-126400000D03*
X166780000Y-126400000D03*
%TD*%
D20*
%TO.C,R119*%
X183700000Y-125640000D03*
X183700000Y-126660000D03*
%TD*%
D25*
%TO.C,R52*%
X147110000Y-123800000D03*
X146090000Y-123800000D03*
%TD*%
D38*
%TO.C,D5*%
X138875000Y-114500000D03*
X138875000Y-115200000D03*
%TD*%
D39*
%TO.C,J16*%
X128800000Y-121575000D03*
X127800000Y-121575000D03*
X126800000Y-121575000D03*
D40*
X130100000Y-124100000D03*
X125500000Y-124100000D03*
%TD*%
D30*
%TO.C,D6*%
X149400000Y-142300000D03*
X150100000Y-142300000D03*
%TD*%
D19*
%TO.C,C36*%
X181100000Y-103380000D03*
X181100000Y-102420000D03*
%TD*%
D41*
%TO.C,D10*%
X173088000Y-106111000D03*
X173088000Y-106811000D03*
%TD*%
D37*
%TO.C,C41*%
X175320000Y-126600000D03*
X176280000Y-126600000D03*
%TD*%
D27*
%TO.C,D2*%
X151200000Y-130087500D03*
X151200000Y-128512500D03*
%TD*%
D20*
%TO.C,R48*%
X166350000Y-101565000D03*
X166350000Y-102585000D03*
%TD*%
%TO.C,R10*%
X157000000Y-129090000D03*
X157000000Y-130110000D03*
%TD*%
D21*
%TO.C,R24*%
X166190000Y-116100000D03*
X167210000Y-116100000D03*
%TD*%
D42*
%TO.C,D4*%
X126100000Y-108950000D03*
X126100000Y-113250000D03*
%TD*%
D43*
%TO.C,D11*%
X196500000Y-110940000D03*
X196500000Y-110240000D03*
%TD*%
D26*
%TO.C,R76*%
X136500000Y-128700000D03*
X136500000Y-127680000D03*
%TD*%
D36*
%TO.C,C28*%
X192400000Y-131925000D03*
X192400000Y-134875000D03*
%TD*%
D21*
%TO.C,R122*%
X192690000Y-121400000D03*
X193710000Y-121400000D03*
%TD*%
D44*
%TO.C,U11*%
X168825000Y-111095000D03*
X168825000Y-112365000D03*
X168825000Y-113635000D03*
X168825000Y-114905000D03*
X173775000Y-114905000D03*
X173775000Y-113635000D03*
X173775000Y-112365000D03*
X173775000Y-111095000D03*
%TD*%
D25*
%TO.C,R127*%
X195500000Y-114550000D03*
X194480000Y-114550000D03*
%TD*%
D21*
%TO.C,R37*%
X162090000Y-127900000D03*
X163110000Y-127900000D03*
%TD*%
D20*
%TO.C,R60*%
X182500000Y-109290000D03*
X182500000Y-110310000D03*
%TD*%
D45*
%TO.C,L4*%
X194500000Y-113340000D03*
X195470000Y-113340000D03*
%TD*%
D26*
%TO.C,R74*%
X127300000Y-132010000D03*
X127300000Y-130990000D03*
%TD*%
%TO.C,R27*%
X165800000Y-113110000D03*
X165800000Y-112090000D03*
%TD*%
D21*
%TO.C,R4*%
X129590000Y-119300000D03*
X130610000Y-119300000D03*
%TD*%
D37*
%TO.C,C6*%
X159010000Y-118230000D03*
X159970000Y-118230000D03*
%TD*%
D26*
%TO.C,R17*%
X163770000Y-115220000D03*
X163770000Y-114200000D03*
%TD*%
%TO.C,R77*%
X135500000Y-128700000D03*
X135500000Y-127680000D03*
%TD*%
%TO.C,R107*%
X188700000Y-110310000D03*
X188700000Y-109290000D03*
%TD*%
D25*
%TO.C,R73*%
X128510000Y-139500000D03*
X127490000Y-139500000D03*
%TD*%
D17*
%TO.C,C39*%
X176820000Y-130670000D03*
X175860000Y-130670000D03*
%TD*%
D26*
%TO.C,R43*%
X185700000Y-110310000D03*
X185700000Y-109290000D03*
%TD*%
D20*
%TO.C,R118*%
X181300000Y-125640000D03*
X181300000Y-126660000D03*
%TD*%
D26*
%TO.C,R49*%
X166350000Y-106385000D03*
X166350000Y-105365000D03*
%TD*%
%TO.C,R50*%
X164300000Y-107610000D03*
X164300000Y-106590000D03*
%TD*%
%TO.C,R21*%
X165900000Y-115110000D03*
X165900000Y-114090000D03*
%TD*%
D20*
%TO.C,R125*%
X123290000Y-142100000D03*
X123290000Y-143120000D03*
%TD*%
D21*
%TO.C,R123*%
X195190000Y-122400000D03*
X196210000Y-122400000D03*
%TD*%
D33*
%TO.C,C42*%
X175600000Y-111120000D03*
X175600000Y-112080000D03*
%TD*%
D26*
%TO.C,R25*%
X165800000Y-111210000D03*
X165800000Y-110190000D03*
%TD*%
D46*
%TO.C,L5*%
X178100000Y-106832000D03*
X178100000Y-107802000D03*
%TD*%
D43*
%TO.C,D9*%
X121300000Y-138750000D03*
X121300000Y-138050000D03*
%TD*%
D21*
%TO.C,R35*%
X161890000Y-131000000D03*
X162910000Y-131000000D03*
%TD*%
D20*
%TO.C,R116*%
X179300000Y-125640000D03*
X179300000Y-126660000D03*
%TD*%
D47*
%TO.C,L9*%
X158800000Y-116500000D03*
X160800000Y-116500000D03*
%TD*%
D25*
%TO.C,R72*%
X128510000Y-138500000D03*
X127490000Y-138500000D03*
%TD*%
D17*
%TO.C,C19*%
X153480000Y-101500000D03*
X152520000Y-101500000D03*
%TD*%
D48*
%TO.C,U5*%
X165125000Y-117450000D03*
D49*
X165900000Y-117200000D03*
X164350000Y-117200000D03*
X164350000Y-117700000D03*
X165900000Y-117700000D03*
%TD*%
D37*
%TO.C,C33*%
X194500000Y-112240000D03*
X195460000Y-112240000D03*
%TD*%
D50*
%TO.C,U3*%
X156340000Y-122770000D03*
X156340000Y-123900000D03*
X156340000Y-125030000D03*
X157470000Y-122770000D03*
X157470000Y-123900000D03*
X157470000Y-125030000D03*
X158600000Y-122770000D03*
X158600000Y-123900000D03*
X158600000Y-125030000D03*
D51*
X154020000Y-121100000D03*
X154020000Y-121500000D03*
X154020000Y-121900000D03*
X154020000Y-122300000D03*
X154020000Y-122700000D03*
X154020000Y-123100000D03*
X154020000Y-123500000D03*
X154020000Y-123900000D03*
X154020000Y-124300000D03*
X154020000Y-124700000D03*
X154020000Y-125100000D03*
X154020000Y-125500000D03*
X154020000Y-125900000D03*
X154020000Y-126300000D03*
X154020000Y-126700000D03*
D52*
X154670000Y-127350000D03*
X155070000Y-127350000D03*
X155470000Y-127350000D03*
X155870000Y-127350000D03*
X156270000Y-127350000D03*
X156670000Y-127350000D03*
X157070000Y-127350000D03*
X157470000Y-127350000D03*
X157870000Y-127350000D03*
X158270000Y-127350000D03*
X158670000Y-127350000D03*
X159070000Y-127350000D03*
X159470000Y-127350000D03*
X159870000Y-127350000D03*
X160270000Y-127350000D03*
D51*
X160920000Y-126700000D03*
X160920000Y-126300000D03*
X160920000Y-125900000D03*
X160920000Y-125500000D03*
X160920000Y-125100000D03*
X160920000Y-124700000D03*
X160920000Y-124300000D03*
X160920000Y-123900000D03*
X160920000Y-123500000D03*
X160920000Y-123100000D03*
X160920000Y-122700000D03*
X160920000Y-122300000D03*
X160920000Y-121900000D03*
X160920000Y-121500000D03*
X160920000Y-121100000D03*
D52*
X160270000Y-120450000D03*
X159870000Y-120450000D03*
X159470000Y-120450000D03*
X159070000Y-120450000D03*
X158670000Y-120450000D03*
X158270000Y-120450000D03*
X157870000Y-120450000D03*
X157470000Y-120450000D03*
X157070000Y-120450000D03*
X156670000Y-120450000D03*
X156270000Y-120450000D03*
X155870000Y-120450000D03*
X155470000Y-120450000D03*
X155070000Y-120450000D03*
X154670000Y-120450000D03*
%TD*%
D30*
%TO.C,D7*%
X154500000Y-142300000D03*
X155200000Y-142300000D03*
%TD*%
D53*
%TO.C,U4*%
X133825000Y-116650000D03*
X132575000Y-116650000D03*
X133825000Y-117550000D03*
X132575000Y-117550000D03*
D54*
X134200000Y-115625000D03*
X133700000Y-115625000D03*
X133200000Y-115625000D03*
X132700000Y-115625000D03*
X132200000Y-115625000D03*
X132200000Y-118575000D03*
X132700000Y-118575000D03*
X133200000Y-118575000D03*
X133700000Y-118575000D03*
X134200000Y-118575000D03*
%TD*%
D21*
%TO.C,R5*%
X144790000Y-113000000D03*
X145810000Y-113000000D03*
%TD*%
D20*
%TO.C,R61*%
X148700000Y-108890000D03*
X148700000Y-109910000D03*
%TD*%
D55*
%TO.C,L2*%
X132125000Y-113150000D03*
X134325000Y-113150000D03*
%TD*%
D25*
%TO.C,R97*%
X178110000Y-118250000D03*
X177090000Y-118250000D03*
%TD*%
D21*
%TO.C,R121*%
X195190000Y-121400000D03*
X196210000Y-121400000D03*
%TD*%
D19*
%TO.C,C26*%
X191600000Y-129380000D03*
X191600000Y-128420000D03*
%TD*%
D56*
%TO.C,C2*%
X137100000Y-115475000D03*
X137100000Y-112525000D03*
%TD*%
D57*
%TO.C,SW1*%
X141400000Y-119450000D03*
X141400000Y-114300000D03*
X143100000Y-119450000D03*
X143100000Y-114300000D03*
%TD*%
D20*
%TO.C,R2*%
X142550000Y-110140000D03*
X142550000Y-111160000D03*
%TD*%
D37*
%TO.C,C40*%
X159020000Y-119200000D03*
X159980000Y-119200000D03*
%TD*%
%TO.C,C11*%
X162820000Y-123800000D03*
X163780000Y-123800000D03*
%TD*%
D21*
%TO.C,R67*%
X146790000Y-141100000D03*
X147810000Y-141100000D03*
%TD*%
D37*
%TO.C,C10*%
X162820000Y-122800000D03*
X163780000Y-122800000D03*
%TD*%
D25*
%TO.C,R41*%
X152670000Y-121500000D03*
X151650000Y-121500000D03*
%TD*%
D19*
%TO.C,C27*%
X192700000Y-129380000D03*
X192700000Y-128420000D03*
%TD*%
D26*
%TO.C,R9*%
X161900000Y-119310000D03*
X161900000Y-118290000D03*
%TD*%
D21*
%TO.C,R130*%
X180090000Y-106853000D03*
X181110000Y-106853000D03*
%TD*%
D20*
%TO.C,R12*%
X159100000Y-129090000D03*
X159100000Y-130110000D03*
%TD*%
D37*
%TO.C,C29*%
X189220000Y-125600000D03*
X190180000Y-125600000D03*
%TD*%
D20*
%TO.C,R135*%
X135525000Y-116790000D03*
X135525000Y-117810000D03*
%TD*%
D26*
%TO.C,R108*%
X188800000Y-107360000D03*
X188800000Y-106340000D03*
%TD*%
D39*
%TO.C,J17*%
X156600000Y-136275000D03*
X155600000Y-136275000D03*
X154600000Y-136275000D03*
D40*
X157900000Y-138800000D03*
X153300000Y-138800000D03*
%TD*%
D21*
%TO.C,R81*%
X123280000Y-140000000D03*
X124300000Y-140000000D03*
%TD*%
D58*
%TO.C,U13*%
X174200000Y-119700000D03*
X172050000Y-119700000D03*
X174200000Y-121400000D03*
X172050000Y-121400000D03*
D59*
X175030000Y-116800000D03*
X173760000Y-116800000D03*
X172490000Y-116800000D03*
X171220000Y-116800000D03*
X171220000Y-124300000D03*
X172490000Y-124300000D03*
X173760000Y-124300000D03*
X175030000Y-124300000D03*
%TD*%
D19*
%TO.C,C38*%
X182100000Y-103080000D03*
X182100000Y-102120000D03*
%TD*%
D20*
%TO.C,R62*%
X144600000Y-110140000D03*
X144600000Y-111160000D03*
%TD*%
D26*
%TO.C,R90*%
X149900000Y-126910000D03*
X149900000Y-125890000D03*
%TD*%
D17*
%TO.C,C5*%
X152220000Y-125290000D03*
X151260000Y-125290000D03*
%TD*%
D26*
%TO.C,R42*%
X166900000Y-131010000D03*
X166900000Y-129990000D03*
%TD*%
D33*
%TO.C,C3*%
X162900000Y-118320000D03*
X162900000Y-119280000D03*
%TD*%
D25*
%TO.C,R92*%
X178110000Y-111250000D03*
X177090000Y-111250000D03*
%TD*%
D60*
%TO.C,Y1*%
X154500000Y-133650000D03*
X156700000Y-133650000D03*
X156700000Y-131950000D03*
X154500000Y-131950000D03*
%TD*%
D25*
%TO.C,R53*%
X147110000Y-122800000D03*
X146090000Y-122800000D03*
%TD*%
D61*
%TO.C,D3*%
X130600000Y-109800000D03*
X130600000Y-105800000D03*
%TD*%
D26*
%TO.C,R79*%
X140100000Y-128710000D03*
X140100000Y-127690000D03*
%TD*%
D19*
%TO.C,C30*%
X178000000Y-114180000D03*
X178000000Y-113220000D03*
%TD*%
D21*
%TO.C,R65*%
X146790000Y-143600000D03*
X147810000Y-143600000D03*
%TD*%
%TO.C,R114*%
X192690000Y-124400000D03*
X193710000Y-124400000D03*
%TD*%
D37*
%TO.C,C34*%
X175120000Y-125600000D03*
X176080000Y-125600000D03*
%TD*%
D25*
%TO.C,R3*%
X142560000Y-112150000D03*
X141540000Y-112150000D03*
%TD*%
D26*
%TO.C,R124*%
X192500000Y-114060000D03*
X192500000Y-113040000D03*
%TD*%
D37*
%TO.C,C16*%
X161920000Y-120200000D03*
X162880000Y-120200000D03*
%TD*%
D62*
%TO.C,C7*%
X152600000Y-132025000D03*
X152600000Y-133575000D03*
%TD*%
D20*
%TO.C,R82*%
X123280000Y-137990000D03*
X123280000Y-139010000D03*
%TD*%
D63*
%TO.C,D12*%
X133800000Y-104900000D03*
X133100000Y-104900000D03*
%TD*%
D20*
%TO.C,R33*%
X150010000Y-121790000D03*
X150010000Y-122810000D03*
%TD*%
D25*
%TO.C,R96*%
X178110000Y-117250000D03*
X177090000Y-117250000D03*
%TD*%
D64*
%TO.C,J10*%
X176725000Y-103200000D03*
D65*
X175200000Y-104675000D03*
X175200000Y-101725000D03*
%TD*%
D66*
%TO.C,D1*%
X134500000Y-109400000D03*
X138500000Y-109400000D03*
%TD*%
D33*
%TO.C,C4*%
X164800000Y-121620000D03*
X164800000Y-122580000D03*
%TD*%
D25*
%TO.C,R40*%
X152240000Y-126300000D03*
X151220000Y-126300000D03*
%TD*%
%TO.C,R128*%
X194500000Y-115690000D03*
X193480000Y-115690000D03*
%TD*%
%TO.C,R94*%
X178110000Y-115250000D03*
X177090000Y-115250000D03*
%TD*%
%TO.C,R126*%
X124290000Y-141100000D03*
X123270000Y-141100000D03*
%TD*%
D33*
%TO.C,C12*%
X155300000Y-114820000D03*
X155300000Y-115780000D03*
%TD*%
D21*
%TO.C,R113*%
X192690000Y-125400000D03*
X193710000Y-125400000D03*
%TD*%
D26*
%TO.C,R7*%
X135300000Y-107010000D03*
X135300000Y-105990000D03*
%TD*%
D67*
%TO.C,SW3*%
X183465000Y-129990000D03*
X178315000Y-129990000D03*
X183465000Y-128290000D03*
X178315000Y-128290000D03*
%TD*%
D21*
%TO.C,R80*%
X192690000Y-122400000D03*
X193710000Y-122400000D03*
%TD*%
D30*
%TO.C,D8*%
X151900000Y-142300000D03*
X152600000Y-142300000D03*
%TD*%
D57*
%TO.C,SW2*%
X166570000Y-124565000D03*
X166570000Y-119415000D03*
X168270000Y-124565000D03*
X168270000Y-119415000D03*
%TD*%
D25*
%TO.C,R98*%
X178110000Y-119250000D03*
X177090000Y-119250000D03*
%TD*%
D20*
%TO.C,R120*%
X184700000Y-125650000D03*
X184700000Y-126670000D03*
%TD*%
D25*
%TO.C,R47*%
X152210000Y-124300000D03*
X151190000Y-124300000D03*
%TD*%
D46*
%TO.C,L7*%
X174088000Y-106832000D03*
X174088000Y-107802000D03*
%TD*%
D68*
%TO.C,L1*%
X195500000Y-110225000D03*
X195500000Y-109255000D03*
%TD*%
D26*
%TO.C,R45*%
X128300000Y-132010000D03*
X128300000Y-130990000D03*
%TD*%
%TO.C,R69*%
X141100000Y-128700000D03*
X141100000Y-127680000D03*
%TD*%
D21*
%TO.C,R1*%
X168290000Y-116900000D03*
X169310000Y-116900000D03*
%TD*%
D26*
%TO.C,R109*%
X187700000Y-110310000D03*
X187700000Y-109290000D03*
%TD*%
%TO.C,R56*%
X182700000Y-126660000D03*
X182700000Y-125640000D03*
%TD*%
D19*
%TO.C,C17*%
X167900000Y-130980000D03*
X167900000Y-130020000D03*
%TD*%
D21*
%TO.C,R112*%
X186690000Y-108330000D03*
X187710000Y-108330000D03*
%TD*%
%TO.C,R59*%
X176068000Y-106832000D03*
X177088000Y-106832000D03*
%TD*%
D25*
%TO.C,R106*%
X178210000Y-123650000D03*
X177190000Y-123650000D03*
%TD*%
%TO.C,R55*%
X178210000Y-124650000D03*
X177190000Y-124650000D03*
%TD*%
D69*
%TO.C,U6*%
X180300000Y-123450000D03*
D70*
X181049630Y-123575000D03*
X181549630Y-123575000D03*
X182049630Y-123575000D03*
X182549630Y-123575000D03*
X183049630Y-123575000D03*
X183549630Y-123575000D03*
X184049630Y-123575000D03*
X184549630Y-123575000D03*
X185049630Y-123575000D03*
X185549630Y-123575000D03*
X186049630Y-123575000D03*
X186549630Y-123575000D03*
X187049630Y-123575000D03*
X187549630Y-123575000D03*
X188049630Y-123575000D03*
X188549630Y-123575000D03*
X189049630Y-123575000D03*
X189549990Y-123575000D03*
D69*
X190300000Y-123450000D03*
D71*
X190425000Y-122700000D03*
X190425000Y-122200000D03*
X190425000Y-121699970D03*
X190425000Y-121199970D03*
X190425000Y-120699970D03*
X190425000Y-120199970D03*
X190425000Y-119699970D03*
X190425000Y-119200000D03*
X190425000Y-118700000D03*
X190425000Y-118200000D03*
X190425000Y-117700000D03*
X190425000Y-117200000D03*
X190425000Y-116699980D03*
X190425000Y-116199970D03*
X190425000Y-115699970D03*
X190425000Y-115199970D03*
X190425000Y-114699970D03*
X190425000Y-114199980D03*
X190425000Y-113699970D03*
X190425000Y-113199970D03*
D69*
X190300000Y-112450000D03*
D70*
X189550000Y-112325000D03*
X189050000Y-112325000D03*
X188550000Y-112325000D03*
X188050000Y-112325000D03*
X187550000Y-112325000D03*
X187050000Y-112325000D03*
X186550000Y-112325000D03*
X186050000Y-112325000D03*
X185550000Y-112325000D03*
X185050000Y-112325000D03*
X184549990Y-112325000D03*
X184050000Y-112325000D03*
X183550000Y-112325000D03*
X183050000Y-112325000D03*
X182550000Y-112325000D03*
X182050000Y-112325000D03*
X181550000Y-112325000D03*
X181050000Y-112325000D03*
D69*
X180300000Y-112450000D03*
D71*
X180174990Y-113200000D03*
D72*
X180174990Y-113700000D03*
X180174990Y-114200030D03*
X180174990Y-114700030D03*
X180174990Y-115200030D03*
X180174990Y-115700030D03*
X180174990Y-116200020D03*
X180174990Y-116700030D03*
X180174990Y-117200000D03*
X180174990Y-117700000D03*
X180174990Y-118200000D03*
X180174990Y-118700000D03*
X180174990Y-119200000D03*
X180174990Y-119700000D03*
X180174990Y-120200000D03*
X180174990Y-120700000D03*
X180174990Y-121200000D03*
X180174990Y-121700000D03*
X180174990Y-122200000D03*
X180174990Y-122700000D03*
D73*
X181899990Y-122050000D03*
X182450000Y-122050000D03*
X182999990Y-122050000D03*
X184750000Y-122050000D03*
X185300000Y-122050000D03*
X185849990Y-122050000D03*
X187600000Y-122050000D03*
X188149990Y-122050000D03*
X188700000Y-122050000D03*
D74*
X187450000Y-118500000D03*
X187450000Y-117950000D03*
X187450000Y-117400000D03*
X188700000Y-113850000D03*
X188149990Y-113850000D03*
X187600000Y-113850000D03*
X185849990Y-113850000D03*
X185300000Y-113850000D03*
X184750000Y-113850000D03*
X182999990Y-113850000D03*
X182450000Y-113850000D03*
X181899990Y-113850000D03*
D73*
X183149990Y-117400000D03*
X183149990Y-117950000D03*
X183149990Y-118500000D03*
D75*
X182450000Y-120800000D03*
X185300000Y-120800000D03*
X188149990Y-120800000D03*
D76*
X188874990Y-117950000D03*
D75*
X188149990Y-115100000D03*
X185300000Y-115100000D03*
X182450000Y-115100000D03*
D76*
X181724990Y-117950000D03*
D75*
X185300000Y-117950000D03*
%TD*%
D20*
%TO.C,R11*%
X158100000Y-129090000D03*
X158100000Y-130110000D03*
%TD*%
D25*
%TO.C,R46*%
X152210000Y-123300000D03*
X151190000Y-123300000D03*
%TD*%
D77*
%TO.C,U7*%
X165850000Y-128962500D03*
X166350000Y-128962500D03*
X166850000Y-128962500D03*
X167350000Y-128962500D03*
D78*
X167362500Y-128450000D03*
X167362500Y-127950000D03*
D77*
X167350000Y-127437500D03*
X166850000Y-127437500D03*
X166350000Y-127437500D03*
X165850000Y-127437500D03*
D78*
X165837500Y-127950000D03*
X165837500Y-128450000D03*
%TD*%
D17*
%TO.C,C14*%
X152670000Y-120500000D03*
X151710000Y-120500000D03*
%TD*%
D21*
%TO.C,R44*%
X168290000Y-117900000D03*
X169310000Y-117900000D03*
%TD*%
D20*
%TO.C,R139*%
X176740000Y-128660000D03*
X176740000Y-129680000D03*
%TD*%
D62*
%TO.C,C8*%
X158600000Y-131925000D03*
X158600000Y-133475000D03*
%TD*%
D25*
%TO.C,R70*%
X128510000Y-141500000D03*
X127490000Y-141500000D03*
%TD*%
D21*
%TO.C,R138*%
X186220000Y-130650000D03*
X187240000Y-130650000D03*
%TD*%
D20*
%TO.C,R15*%
X148200000Y-136990000D03*
X148200000Y-138010000D03*
%TD*%
D21*
%TO.C,R64*%
X146790000Y-144600000D03*
X147810000Y-144600000D03*
%TD*%
D25*
%TO.C,R95*%
X178110000Y-116250000D03*
X177090000Y-116250000D03*
%TD*%
%TO.C,R88*%
X153610000Y-129500000D03*
X152590000Y-129500000D03*
%TD*%
D79*
%TO.C,U9*%
X143950000Y-123975000D03*
X143950000Y-123325000D03*
X143950000Y-122675000D03*
X143950000Y-122025000D03*
X139650000Y-122025000D03*
X139650000Y-122675000D03*
X139650000Y-123325000D03*
X139650000Y-123975000D03*
%TD*%
D20*
%TO.C,R26*%
X163700000Y-112100000D03*
X163700000Y-113120000D03*
%TD*%
%TO.C,R32*%
X156460000Y-115930000D03*
X156460000Y-116950000D03*
%TD*%
%TO.C,R129*%
X179100000Y-105800000D03*
X179100000Y-106820000D03*
%TD*%
D26*
%TO.C,R86*%
X179200000Y-110360000D03*
X179200000Y-109340000D03*
%TD*%
D33*
%TO.C,C13*%
X155900000Y-128720000D03*
X155900000Y-129680000D03*
%TD*%
D20*
%TO.C,R83*%
X122300000Y-136980000D03*
X122300000Y-138000000D03*
%TD*%
D19*
%TO.C,C31*%
X177000000Y-114180000D03*
X177000000Y-113220000D03*
%TD*%
D80*
%TO.C,J1*%
X180030000Y-132300000D03*
X182570000Y-132300000D03*
X185110000Y-132300000D03*
X181300000Y-132300000D03*
X183840000Y-132300000D03*
X186380000Y-132300000D03*
D81*
X177050000Y-136400000D03*
X177050000Y-145200000D03*
X189350000Y-136400000D03*
X189350000Y-145200000D03*
%TD*%
D33*
%TO.C,C35*%
X175088000Y-106832000D03*
X175088000Y-107792000D03*
%TD*%
D25*
%TO.C,R71*%
X128510000Y-140500000D03*
X127490000Y-140500000D03*
%TD*%
D19*
%TO.C,C9*%
X154300000Y-117780000D03*
X154300000Y-116820000D03*
%TD*%
D82*
%TO.C,U14*%
X182600000Y-104567000D03*
D83*
X182600000Y-105210000D03*
X182600000Y-105710000D03*
X182600000Y-106210000D03*
D82*
X182600000Y-106853000D03*
X184976000Y-106853000D03*
D83*
X184976000Y-106210000D03*
X184976000Y-105710000D03*
X184976000Y-105210000D03*
D82*
X184976000Y-104567000D03*
D84*
X183788000Y-104832000D03*
D85*
X183788000Y-105710000D03*
D84*
X183788000Y-106587000D03*
%TD*%
D25*
%TO.C,R105*%
X178210000Y-122650000D03*
X177190000Y-122650000D03*
%TD*%
D37*
%TO.C,C32*%
X195200000Y-123400000D03*
X196160000Y-123400000D03*
%TD*%
D39*
%TO.C,J15*%
X172800000Y-126475000D03*
X171800000Y-126475000D03*
X170800000Y-126475000D03*
D40*
X174100000Y-129000000D03*
X169500000Y-129000000D03*
%TD*%
D26*
%TO.C,R34*%
X150010000Y-124910000D03*
X150010000Y-123890000D03*
%TD*%
D19*
%TO.C,C15*%
X155300000Y-117780000D03*
X155300000Y-116820000D03*
%TD*%
D26*
%TO.C,R131*%
X185020000Y-130700000D03*
X185020000Y-129680000D03*
%TD*%
D21*
%TO.C,R6*%
X133200000Y-107000000D03*
X134220000Y-107000000D03*
%TD*%
D26*
%TO.C,R58*%
X183700000Y-110310000D03*
X183700000Y-109290000D03*
%TD*%
D68*
%TO.C,L6*%
X186580000Y-106885000D03*
X186580000Y-105915000D03*
%TD*%
D19*
%TO.C,C37*%
X181100000Y-105280000D03*
X181100000Y-104320000D03*
%TD*%
D86*
%TO.C,U12*%
X148390000Y-115690000D03*
X148390000Y-117840000D03*
X150090000Y-115690000D03*
X150090000Y-117840000D03*
D87*
X145490000Y-114860000D03*
X145490000Y-116130000D03*
X145490000Y-117400000D03*
X145490000Y-118670000D03*
X152990000Y-118670000D03*
X152990000Y-117400000D03*
X152990000Y-116130000D03*
X152990000Y-114860000D03*
%TD*%
D68*
%TO.C,L8*%
X187300000Y-104535000D03*
X187300000Y-103565000D03*
%TD*%
D26*
%TO.C,R78*%
X134500000Y-128700000D03*
X134500000Y-127680000D03*
%TD*%
D88*
X100000000Y-100000000D02*
X215000000Y-100000000D01*
X215000000Y-147000000D01*
X100000000Y-147000000D01*
X100000000Y-100000000D01*
M02*
