M48
; DRILL file KiCad 10.0.4 date 2026-07-09T14:34:01
; FORMAT={-:-/ absolute / metric / decimal}
; #@! TF.CreationDate,2026-07-09T14:34:01+02:00
; #@! TF.GenerationSoftware,Kicad,Pcbnew,10.0.4
; #@! TF.FileFunction,Plated,1,4,PTH
FMAT,2
METRIC
; #@! TA.AperFunction,Plated,PTH,ViaDrill
T1C0.300
; #@! TA.AperFunction,Plated,PTH,ComponentDrill
T2C0.500
; #@! TA.AperFunction,Plated,PTH,ComponentDrill
T3C0.600
; #@! TA.AperFunction,Plated,PTH,ComponentDrill
T4C0.650
; #@! TA.AperFunction,Plated,PTH,ComponentDrill
T5C0.700
; #@! TA.AperFunction,Plated,PTH,ComponentDrill
T6C1.000
; #@! TA.AperFunction,Plated,PTH,ComponentDrill
T7C1.050
; #@! TA.AperFunction,Plated,PTH,ComponentDrill
T8C1.500
; #@! TA.AperFunction,Plated,PTH,ComponentDrill
T9C1.570
; #@! TA.AperFunction,Plated,PTH,ComponentDrill
T10C3.200
%
G90
G05
T1
X121.0Y-101.75
X121.0Y-102.75
X121.0Y-103.75
X121.0Y-104.75
X121.0Y-105.75
X121.0Y-106.75
X121.0Y-107.75
X121.0Y-108.75
X121.0Y-109.75
X121.0Y-110.75
X121.0Y-111.75
X121.0Y-112.75
X121.0Y-113.75
X121.0Y-114.75
X121.0Y-115.75
X121.0Y-116.75
X121.0Y-117.75
X121.0Y-118.75
X121.0Y-119.75
X121.0Y-120.75
X121.0Y-121.75
X121.0Y-122.75
X121.0Y-123.75
X121.0Y-124.75
X121.0Y-125.75
X121.0Y-126.75
X121.0Y-127.75
X121.0Y-128.75
X121.0Y-129.75
X121.0Y-130.75
X121.0Y-131.75
X121.0Y-132.75
X121.0Y-133.75
X121.0Y-134.75
X121.0Y-135.75
X121.0Y-137.0
X121.0Y-139.25
X121.0Y-140.75
X121.0Y-141.75
X121.0Y-142.75
X121.0Y-143.75
X121.0Y-144.75
X121.0Y-145.75
X121.25Y-100.75
X121.5Y-136.25
X121.5Y-140.0
X121.5Y-146.25
X122.0Y-145.0
X122.08Y-121.97
X122.1Y-142.9
X122.2Y-122.7
X122.2Y-143.9
X122.25Y-100.75
X122.3Y-136.2
X122.32Y-123.59
X122.4Y-139.3
X122.4Y-140.2
X122.4Y-141.1
X122.4Y-142.0
X122.5Y-146.25
X122.7Y-111.35
X122.78Y-108.94
X122.78Y-132.1
X123.0Y-130.37
X123.1Y-137.2
X123.25Y-100.75
X123.4Y-134.6
X123.4Y-135.9
X123.5Y-124.2
X123.5Y-144.1
X123.5Y-146.25
X123.9Y-137.2
X123.99Y-116.58
X124.2Y-138.0
X124.2Y-139.1
X124.2Y-142.1
X124.25Y-100.75
X124.4Y-133.7
X124.5Y-146.25
X124.7Y-136.7
X124.7Y-144.1
X124.78Y-111.18
X124.8Y-138.6
X124.85Y-137.6
X124.9Y-139.3
X124.9Y-140.2
X124.99Y-129.75
X125.0Y-142.1
X125.08Y-131.66
X125.25Y-100.75
X125.3Y-128.2
X125.4Y-133.7
X125.5Y-146.25
X125.6Y-108.4
X125.6Y-109.3
X125.7Y-142.3
X126.0Y-144.1
X126.1Y-141.6
X126.25Y-100.75
X126.3Y-127.7
X126.3Y-133.7
X126.5Y-109.3
X126.5Y-142.3
X126.5Y-146.25
X126.6Y-108.4
X126.6Y-140.8
X126.7Y-138.6
X126.7Y-139.8
X126.9Y-136.7
X126.9Y-137.6
X127.0Y-144.1
X127.25Y-100.75
X127.25Y-130.05
X127.5Y-142.3
X127.5Y-146.25
X127.8Y-120.3
X127.8Y-122.8
X127.9Y-136.7
X128.0Y-144.1
X128.09Y-106.72
X128.2Y-135.9
X128.25Y-100.75
X128.3Y-129.9
X128.37Y-125.03
X128.5Y-142.3
X128.5Y-146.25
X129.1Y-144.1
X129.25Y-100.75
X129.3Y-125.3
X129.5Y-146.25
X129.9Y-117.675
X130.0Y-120.3
X130.09Y-130.37
X130.1Y-121.0
X130.25Y-100.75
X130.3Y-144.1
X130.32Y-112.51
X130.5Y-146.25
X130.9Y-122.3
X131.25Y-100.75
X131.4Y-144.0
X131.5Y-146.25
X131.6Y-120.6
X131.82Y-130.46
X132.0Y-140.0
X132.0Y-141.0
X132.0Y-142.0
X132.0Y-142.75
X132.0Y-143.5
X132.16Y-132.81
X132.25Y-100.75
X132.5Y-116.7
X132.5Y-117.4
X132.5Y-139.25
X132.5Y-146.25
X132.52Y-134.81
X132.7Y-124.8
X132.75Y-144.25
X132.9Y-122.6
X132.96Y-131.22
X133.0Y-123.7
X133.01Y-138.23
X133.07Y-140.15
X133.13Y-143.17
X133.21Y-111.98
X133.214Y-114.755
X133.25Y-100.75
X133.25Y-125.35
X133.5Y-139.25
X133.5Y-146.25
X133.6Y-124.7
X133.7Y-116.7
X133.7Y-117.4
X133.75Y-144.25
X133.8Y-103.8
X133.8Y-106.3
X133.8Y-119.7
X133.97Y-135.73
X134.03Y-133.38
X134.19Y-140.15
X134.2Y-120.3
X134.25Y-100.75
X134.25Y-143.17
X134.4Y-105.8
X134.5Y-127.0
X134.5Y-139.25
X134.5Y-146.25
X134.7Y-119.8
X134.78Y-121.71
X135.0Y-103.8
X135.0Y-144.0
X135.16Y-134.67
X135.25Y-100.75
X135.25Y-139.75
X135.25Y-143.0
X135.3Y-140.58
X135.5Y-127.0
X135.5Y-146.25
X135.53Y-121.61
X135.56Y-138.16
X136.0Y-142.7
X136.09Y-122.48
X136.12Y-136.07
X136.2Y-106.5
X136.2Y-140.7
X136.25Y-100.75
X136.46Y-133.12
X136.49Y-120.22
X136.5Y-123.4
X136.5Y-126.9
X136.5Y-146.25
X136.7Y-105.85
X136.8Y-142.6
X137.02Y-113.88
X137.1Y-112.525
X137.2Y-124.0
X137.2Y-140.7
X137.25Y-100.75
X137.54Y-136.28
X137.57Y-146.31
X137.63Y-134.83
X137.73Y-139.23
X137.79Y-118.47
X137.8Y-142.6
X138.0Y-127.5
X138.0Y-128.5
X138.1Y-122.3
X138.2Y-140.7
X138.25Y-100.75
X138.4Y-113.7
X138.53Y-132.28
X138.6Y-146.33
X138.9Y-142.6
X138.98Y-135.5
X139.04Y-133.96
X139.14Y-138.21
X139.25Y-100.75
X139.3Y-140.7
X139.6Y-146.33
X139.7Y-114.8
X139.8Y-126.7
X140.0Y-106.47
X140.1Y-142.5
X140.2Y-114.2
X140.2Y-115.9
X140.2Y-116.8
X140.21Y-117.58
X140.22Y-136.85
X140.25Y-100.75
X140.3Y-140.7
X140.61Y-146.34
X140.76Y-135.74
X140.97Y-132.87
X141.1Y-116.3
X141.1Y-142.5
X141.2Y-117.3
X141.25Y-100.75
X141.3Y-140.7
X141.34Y-138.81
X141.4Y-113.0
X141.4Y-118.2
X141.48Y-122.45
X141.6Y-110.9
X141.64Y-146.32
X141.7Y-116.8
X141.81Y-137.14
X141.9Y-108.0
X142.1Y-128.9
X142.1Y-142.5
X142.25Y-100.75
X142.3Y-140.7
X142.405Y-115.652
X142.5Y-146.25
X142.664Y-117.814
X142.7Y-122.3
X142.93Y-135.47
X143.13Y-103.64
X143.2Y-140.8
X143.2Y-142.5
X143.25Y-100.75
X143.33Y-130.2
X143.4Y-133.2
X143.45Y-143.35
X143.5Y-146.25
X143.6Y-111.9
X143.8Y-141.6
X143.84Y-137.48
X144.01Y-139.01
X144.25Y-100.75
X144.3Y-115.0
X144.5Y-146.25
X144.6Y-111.9
X144.68Y-128.27
X144.9Y-105.0
X145.15Y-122.05
X145.25Y-100.75
X145.38Y-101.83
X145.5Y-146.25
X145.55Y-127.75
X146.1Y-126.79
X146.25Y-100.75
X146.3Y-146.25
X146.6Y-124.4
X146.7Y-115.1
X146.7Y-131.6
X146.71Y-116.77
X146.75Y-118.3
X147.0Y-105.0
X147.0Y-130.7
X147.0Y-138.7
X147.12Y-121.53
X147.25Y-100.75
X147.3Y-146.25
X147.39Y-133.44
X147.5Y-126.8
X147.56Y-103.55
X147.7Y-124.6
X147.81Y-127.69
X147.81Y-139.74
X148.08Y-101.74
X148.09Y-129.89
X148.2Y-115.2
X148.2Y-118.3
X148.2Y-126.6
X148.2Y-133.4
X148.2Y-138.7
X148.24Y-116.765
X148.25Y-100.75
X148.3Y-146.25
X148.5Y-111.3
X148.5Y-141.1
X148.5Y-142.6
X148.5Y-143.6
X148.5Y-144.6
X148.6Y-126.0
X148.6Y-145.6
X148.65Y-121.65
X148.65Y-122.35
X148.65Y-123.05
X148.7Y-124.3
X148.7Y-125.1
X149.2Y-115.2
X149.2Y-118.3
X149.24Y-116.765
X149.25Y-100.75
X149.32Y-123.47
X149.35Y-122.282
X149.4Y-127.7
X149.5Y-111.3
X149.5Y-146.25
X149.59Y-138.79
X149.6Y-128.5
X149.7Y-130.6
X149.73Y-133.21
X149.8Y-129.2
X149.84Y-132.5
X150.0Y-140.3
X150.1Y-129.9
X150.2Y-115.2
X150.2Y-118.3
X150.24Y-116.765
X150.25Y-100.75
X150.3Y-108.9
X150.5Y-126.3
X150.5Y-146.25
X150.6Y-127.0
X150.7Y-134.98
X151.0Y-132.9
X151.01Y-120.33
X151.07Y-136.61
X151.2Y-142.3
X151.25Y-100.75
X151.46Y-115.19
X151.49Y-116.78
X151.5Y-141.06
X151.5Y-146.25
X151.58Y-133.3
X151.6Y-101.61
X151.7Y-124.8
X151.8Y-118.5
X151.9Y-104.6
X151.9Y-111.8
X151.93Y-135.44
X152.15Y-130.2
X152.25Y-100.75
X152.4Y-116.7
X152.5Y-146.25
X152.6Y-134.7
X152.8Y-102.4
X152.99Y-124.36
X153.0Y-123.0
X153.05Y-127.05
X153.1Y-125.1
X153.2Y-111.3
X153.25Y-100.75
X153.4Y-110.4
X153.5Y-146.25
X153.8Y-142.3
X154.05Y-112.15
X154.25Y-100.75
X154.3Y-111.2
X154.5Y-102.1
X154.5Y-132.0
X154.5Y-138.8
X154.5Y-146.25
X154.7Y-129.4
X154.75Y-130.5
X154.76Y-116.39
X154.8Y-124.3
X154.9Y-122.2
X155.0Y-122.9
X155.05Y-105.86
X155.2Y-108.6
X155.25Y-100.75
X155.3Y-114.1
X155.5Y-121.4
X155.5Y-146.25
X155.65Y-134.75
X155.7Y-130.5
X155.85Y-140.95
X155.94Y-138.82
X156.25Y-100.75
X156.5Y-123.1
X156.5Y-123.9
X156.5Y-124.7
X156.5Y-146.25
X156.7Y-112.1
X156.7Y-118.6
X156.7Y-133.65
X157.1Y-141.25
X157.25Y-100.75
X157.48Y-105.68
X157.5Y-123.1
X157.5Y-123.9
X157.5Y-124.7
X157.5Y-128.4
X157.5Y-146.25
X157.7Y-136.6
X157.75Y-142.2
X157.97Y-102.82
X158.1Y-108.75
X158.1Y-117.7
X158.1Y-118.4
X158.1Y-140.6
X158.25Y-100.75
X158.5Y-123.1
X158.5Y-123.9
X158.5Y-124.7
X158.5Y-146.25
X158.65Y-134.85
X158.89Y-141.0
X159.25Y-100.75
X159.3Y-142.2
X159.5Y-146.25
X159.6Y-111.85
X159.6Y-122.1
X159.7Y-130.9
X159.75Y-114.15
X160.1Y-126.0
X160.25Y-100.75
X160.25Y-130.4
X160.5Y-146.25
X160.7Y-135.9
X160.72Y-140.1
X160.84Y-118.22
X160.84Y-119.146
X160.94Y-138.2
X161.0Y-131.1
X161.25Y-100.75
X161.26Y-103.04
X161.3Y-111.9
X161.3Y-141.1
X161.48Y-127.604
X161.5Y-146.25
X161.55Y-113.95
X161.6Y-144.5
X161.6Y-145.5
X161.7Y-131.7
X161.7Y-142.4
X161.75Y-107.43
X161.76Y-124.71
X161.8Y-143.5
X161.86Y-129.97
X161.9Y-117.5
X161.9Y-121.3
X161.9Y-123.5
X161.95Y-125.55
X162.0Y-140.2
X162.1Y-141.8
X162.25Y-100.75
X162.38Y-135.77
X162.4Y-130.5
X162.43Y-124.98
X162.5Y-146.25
X162.58Y-106.08
X162.59Y-142.57
X162.61Y-145.55
X162.63Y-137.86
X162.75Y-117.65
X162.8Y-132.5
X162.8Y-140.1
X163.15Y-112.6
X163.25Y-100.75
X163.29Y-101.9
X163.4Y-103.5
X163.4Y-130.0
X163.4Y-133.2
X163.45Y-104.3
X163.5Y-146.25
X163.7Y-118.7
X163.71Y-142.57
X163.73Y-145.55
X163.75Y-119.85
X163.78Y-140.07
X163.9Y-127.5
X163.9Y-131.1
X163.9Y-131.9
X163.986Y-126.614
X164.0Y-128.2
X164.1Y-133.1
X164.25Y-100.75
X164.3Y-114.7
X164.5Y-146.25
X164.7Y-102.5
X164.7Y-123.4
X164.7Y-125.6
X164.78Y-140.07
X164.8Y-128.1
X164.8Y-145.2
X164.93Y-142.79
X165.0Y-129.4
X165.2Y-130.1
X165.2Y-135.6
X165.23Y-137.78
X165.25Y-100.75
X165.29Y-112.59
X165.45Y-105.1
X165.5Y-103.4
X165.5Y-106.35
X165.5Y-116.2
X165.5Y-146.25
X165.55Y-124.8
X165.6Y-107.2
X165.6Y-131.9
X165.6Y-132.6
X165.62Y-124.1
X165.7Y-122.1
X165.72Y-140.07
X165.84Y-142.27
X165.9Y-145.0
X166.05Y-109.3
X166.1Y-130.1
X166.1Y-143.1
X166.25Y-100.75
X166.35Y-108.58
X166.4Y-114.6
X166.5Y-146.25
X166.6Y-128.2
X166.8Y-113.3
X166.85Y-140.09
X166.86Y-137.75
X166.9Y-117.0
X166.9Y-131.9
X166.9Y-132.6
X166.9Y-135.5
X166.9Y-145.0
X166.95Y-142.3
X166.99Y-107.2
X167.0Y-143.1
X167.11Y-108.8
X167.25Y-100.75
X167.4Y-123.28
X167.5Y-117.9
X167.5Y-146.25
X167.505Y-134.7
X167.52Y-113.31
X167.52Y-120.36
X167.65Y-126.4
X167.8Y-145.0
X167.9Y-143.1
X168.07Y-142.3
X168.1Y-116.0
X168.1Y-127.4
X168.1Y-128.2
X168.1Y-129.0
X168.11Y-135.55
X168.11Y-140.08
X168.12Y-137.72
X168.25Y-100.75
X168.3Y-132.7
X168.5Y-146.25
X168.65Y-101.57
X168.8Y-130.2
X168.8Y-143.1
X168.8Y-145.0
X169.0Y-132.8
X169.0Y-133.6
X169.15Y-140.09
X169.17Y-137.7
X169.19Y-142.33
X169.2Y-120.2
X169.24Y-135.59
X169.25Y-100.75
X169.29Y-106.99
X169.3Y-116.0
X169.3Y-127.5
X169.5Y-146.25
X169.59Y-124.13
X169.7Y-133.6
X169.7Y-143.1
X169.75Y-120.8
X169.8Y-145.0
X170.12Y-142.32
X170.14Y-109.32
X170.25Y-100.75
X170.28Y-108.25
X170.3Y-139.7
X170.31Y-123.44
X170.4Y-114.9
X170.45Y-118.34
X170.5Y-146.25
X170.61Y-107.45
X170.7Y-129.0
X170.7Y-138.8
X170.73Y-110.14
X170.76Y-136.37
X170.8Y-145.0
X170.94Y-106.54
X170.99Y-142.585
X171.01Y-139.59
X171.2Y-117.6
X171.25Y-100.75
X171.5Y-146.25
X171.56Y-119.59
X171.56Y-120.59
X171.56Y-121.59
X171.56Y-131.38
X171.6Y-138.7
X171.7Y-104.17
X171.7Y-129.0
X171.8Y-105.86
X171.8Y-125.2
X171.8Y-133.6
X171.8Y-135.71
X171.8Y-145.0
X172.02Y-110.21
X172.1Y-111.8
X172.11Y-142.585
X172.13Y-139.59
X172.2Y-113.8
X172.2Y-114.9
X172.25Y-100.75
X172.43Y-107.65
X172.5Y-146.25
X172.6Y-144.8
X172.69Y-143.45
X172.7Y-138.8
X172.75Y-128.65
X172.79Y-108.41
X172.81Y-105.5
X172.83Y-109.36
X173.0Y-139.8
X173.0Y-140.8
X173.0Y-142.6
X173.1Y-141.8
X173.125Y-119.55
X173.125Y-120.55
X173.125Y-121.55
X173.2Y-133.6
X173.25Y-100.75
X173.3Y-135.7
X173.32Y-107.61
X173.5Y-144.1
X173.5Y-146.25
X173.55Y-108.45
X173.55Y-131.04
X173.6Y-102.4
X173.6Y-103.6
X173.6Y-104.8
X173.9Y-126.1
X173.9Y-126.8
X174.0Y-105.89
X174.19Y-125.29
X174.2Y-127.5
X174.25Y-100.75
X174.25Y-108.65
X174.4Y-132.9
X174.4Y-140.9
X174.4Y-144.4
X174.43Y-137.58
X174.5Y-135.9
X174.5Y-146.25
X174.66Y-119.59
X174.66Y-120.59
X174.66Y-121.59
X174.88Y-139.31
X174.95Y-131.05
X175.06Y-108.59
X175.08Y-105.89
X175.14Y-127.71
X175.25Y-100.75
X175.5Y-146.25
X175.6Y-112.9
X175.7Y-135.9
X175.7Y-145.5
X175.8Y-114.2
X175.83Y-107.71
X175.85Y-108.45
X176.1Y-105.92
X176.1Y-110.2
X176.1Y-115.3
X176.1Y-116.2
X176.25Y-100.75
X176.3Y-124.7
X176.4Y-109.34
X176.4Y-117.8
X176.4Y-123.7
X176.4Y-133.4
X176.5Y-146.25
X176.57Y-107.59
X176.66Y-138.69
X176.67Y-104.27
X176.7Y-102.1
X176.7Y-121.5
X176.99Y-105.97
X177.1Y-144.2
X177.2Y-109.1
X177.2Y-125.3
X177.24Y-142.22
X177.25Y-100.75
X177.27Y-126.61
X177.3Y-127.4
X177.37Y-107.65
X177.4Y-104.14
X177.4Y-121.5
X177.4Y-130.67
X177.5Y-102.1
X177.5Y-120.8
X177.5Y-146.25
X177.52Y-125.94
X177.6Y-135.3
X177.92Y-109.3
X178.11Y-133.94
X178.12Y-143.89
X178.16Y-104.08
X178.2Y-105.0
X178.2Y-106.0
X178.2Y-136.9
X178.25Y-100.75
X178.28Y-139.83
X178.3Y-102.2
X178.5Y-146.25
X178.76Y-107.74
X178.8Y-120.19
X178.8Y-134.8
X178.94Y-111.69
X179.1Y-102.4
X179.1Y-111.0
X179.25Y-100.75
X179.3Y-120.7
X179.38Y-119.72
X179.4Y-123.3
X179.5Y-146.25
X179.6Y-107.7
X179.71Y-141.34
X179.8Y-103.1
X179.8Y-109.1
X179.875Y-111.125
X180.0Y-104.0
X180.0Y-105.0
X180.0Y-106.0
X180.04Y-127.73
X180.05Y-128.55
X180.1Y-129.3
X180.2Y-102.5
X180.25Y-100.75
X180.34Y-107.67
X180.4Y-111.7
X180.5Y-146.25
X180.9Y-106.0
X180.97Y-109.87
X181.0Y-101.75
X181.0Y-111.1
X181.09Y-113.17
X181.13Y-122.7
X181.22Y-140.09
X181.25Y-100.75
X181.28Y-107.68
X181.3Y-117.6
X181.3Y-118.4
X181.33Y-133.44
X181.5Y-146.25
X181.7Y-111.05
X181.8Y-106.0
X181.93Y-127.73
X182.0Y-114.7
X182.0Y-115.5
X182.0Y-128.5
X182.0Y-129.3
X182.02Y-136.78
X182.1Y-117.6
X182.1Y-118.4
X182.1Y-120.4
X182.1Y-121.2
X182.15Y-144.07
X182.2Y-107.69
X182.25Y-100.75
X182.28Y-130.76
X182.5Y-146.25
X182.8Y-114.7
X182.8Y-115.5
X182.9Y-120.4
X182.9Y-121.2
X182.99Y-107.63
X183.0Y-103.9
X183.18Y-141.23
X183.25Y-100.75
X183.5Y-146.25
X183.7Y-108.6
X183.788Y-105.71
X183.79Y-104.84
X183.79Y-106.62
X183.84Y-139.79
X183.85Y-107.46
X184.15Y-127.3
X184.25Y-100.75
X184.25Y-104.03
X184.31Y-143.96
X184.41Y-111.2
X184.5Y-146.25
X184.54Y-136.63
X184.82Y-107.54
X184.9Y-114.7
X184.9Y-115.5
X184.9Y-117.5
X184.9Y-118.3
X184.9Y-120.4
X184.9Y-121.2
X185.01Y-103.69
X185.1Y-111.5
X185.25Y-100.75
X185.5Y-146.25
X185.7Y-114.7
X185.7Y-115.5
X185.7Y-117.5
X185.7Y-118.3
X185.7Y-120.4
X185.7Y-121.2
X185.77Y-107.33
X185.81Y-103.61
X185.85Y-105.35
X186.0Y-129.7
X186.25Y-100.75
X186.4Y-124.4
X186.5Y-146.25
X186.53Y-140.9
X186.62Y-103.59
X187.1Y-105.4
X187.25Y-100.75
X187.34Y-139.13
X187.5Y-146.25
X187.8Y-114.7
X187.8Y-115.5
X187.8Y-120.4
X187.8Y-121.2
X187.8Y-129.9
X187.9Y-103.57
X187.93Y-135.45
X187.98Y-144.04
X188.0Y-136.9
X188.04Y-140.64
X188.05Y-124.25
X188.15Y-105.34
X188.25Y-100.75
X188.3Y-102.5
X188.3Y-130.9
X188.4Y-124.86
X188.5Y-117.6
X188.5Y-118.4
X188.5Y-146.25
X188.6Y-114.7
X188.6Y-115.5
X188.6Y-120.4
X188.6Y-121.2
X188.65Y-111.65
X188.69Y-122.82
X188.7Y-103.63
X188.7Y-108.3
X189.0Y-130.3
X189.0Y-131.0
X189.07Y-105.55
X189.095Y-110.945
X189.12Y-112.97
X189.15Y-124.65
X189.19Y-139.39
X189.19Y-142.48
X189.25Y-100.75
X189.3Y-117.6
X189.3Y-118.4
X189.4Y-144.3
X189.46Y-122.52
X189.47Y-133.65
X189.5Y-103.8
X189.5Y-146.25
X189.55Y-110.4
X189.68Y-106.04
X189.68Y-113.46
X189.8Y-115.3
X189.8Y-116.1
X190.0Y-109.8
X190.18Y-104.2
X190.25Y-100.75
X190.29Y-106.66
X190.34Y-130.68
X190.49Y-109.22
X190.5Y-146.25
X190.55Y-131.88
X190.59Y-136.92
X190.61Y-107.43
X190.67Y-108.27
X190.8Y-104.7
X190.8Y-111.55
X191.09Y-113.57
X191.12Y-125.02
X191.19Y-112.81
X191.2Y-116.6
X191.25Y-100.75
X191.25Y-110.99
X191.45Y-112.0
X191.45Y-118.2
X191.5Y-105.45
X191.5Y-146.25
X191.56Y-125.61
X191.66Y-127.61
X191.77Y-110.47
X192.0Y-106.11
X192.02Y-138.98
X192.13Y-109.81
X192.25Y-100.75
X192.28Y-106.85
X192.34Y-109.1
X192.38Y-108.37
X192.4Y-116.6
X192.42Y-107.58
X192.5Y-146.25
X192.615Y-127.559
X192.7Y-114.8
X193.0Y-117.7
X193.0Y-119.0
X193.15Y-120.7
X193.25Y-100.75
X193.5Y-146.25
X193.6Y-110.4
X193.6Y-111.3
X193.6Y-112.2
X193.6Y-113.1
X193.6Y-113.9
X193.6Y-114.8
X193.7Y-116.6
X193.82Y-128.64
X193.9Y-109.5
X193.93Y-134.87
X194.25Y-100.75
X194.4Y-117.4
X194.49Y-130.43
X194.5Y-116.6
X194.5Y-120.5
X194.5Y-122.7
X194.5Y-124.0
X194.5Y-124.9
X194.5Y-146.25
X194.6Y-137.43
X194.7Y-109.3
X194.9Y-132.5
X195.25Y-100.75
X195.3Y-116.2
X195.4Y-111.1
X195.5Y-146.25
X195.75Y-115.65
X195.8Y-120.5
X195.97Y-134.67
X196.1Y-113.0
X196.2Y-109.2
X196.2Y-112.2
X196.22Y-138.94
X196.25Y-100.75
X196.37Y-130.54
X196.4Y-113.7
X196.5Y-146.25
X196.55Y-107.65
X196.6Y-111.6
X196.99Y-121.35
X197.0Y-109.2
X197.0Y-122.4
X197.05Y-123.45
X197.1Y-117.5
X197.2Y-111.1
X197.2Y-114.1
X197.2Y-120.5
X197.25Y-100.75
X197.5Y-146.25
X197.7Y-114.9
X197.7Y-116.6
X197.9Y-115.8
X198.0Y-101.25
X198.0Y-102.25
X198.0Y-103.25
X198.0Y-104.25
X198.0Y-105.25
X198.0Y-106.25
X198.0Y-107.25
X198.0Y-108.25
X198.0Y-109.2
X198.0Y-111.1
X198.0Y-111.8
X198.0Y-112.8
X198.0Y-113.8
X198.0Y-118.2
X198.0Y-119.7
X198.0Y-122.5
X198.0Y-123.5
X198.0Y-124.5
X198.0Y-125.5
X198.0Y-126.5
X198.0Y-127.5
X198.0Y-128.5
X198.0Y-129.5
X198.0Y-130.5
X198.0Y-131.5
X198.0Y-132.5
X198.0Y-133.5
X198.0Y-134.5
X198.0Y-135.5
X198.0Y-136.5
X198.0Y-137.5
X198.0Y-138.5
X198.0Y-139.5
X198.0Y-140.5
X198.0Y-141.5
X198.0Y-142.5
X198.0Y-143.5
X198.0Y-144.5
X198.0Y-145.5
X202.675Y-110.225
T2
X184.1Y-101.7
X185.1Y-101.7
X186.1Y-101.7
X187.1Y-101.7
X188.1Y-101.7
X189.1Y-101.7
T4
X156.232Y-104.176
X156.232Y-107.768
X159.824Y-104.176
X159.824Y-107.768
T5
X157.87Y-113.16
X160.41Y-113.16
T6
X130.56Y-102.2
X133.1Y-102.2
X135.64Y-102.2
X138.18Y-102.2
X150.09Y-144.8
X152.63Y-144.8
X155.17Y-144.8
X157.71Y-144.8
T7
X171.488Y-108.972
T8
X104.1Y-112.6
X104.1Y-138.0
T9
X123.05Y-127.4
X195.95Y-127.4
T10
X125.0Y-104.0
X194.0Y-104.0
X194.0Y-143.0
T3
G00X141.675Y-102.44
M15
G01X141.675Y-101.84
M16
G05
G00X141.675Y-106.87
M15
G01X141.675Y-105.77
M16
G05
G00X150.325Y-102.44
M15
G01X150.325Y-101.84
M16
G05
G00X150.325Y-106.87
M15
G01X150.325Y-105.77
M16
G05
M30
