%TF.GenerationSoftware,KiCad,Pcbnew,10.0.4*%
%TF.CreationDate,2026-07-09T14:33:48+02:00*%
%TF.ProjectId,PowerLineSensorPCB,506f7765-724c-4696-9e65-53656e736f72,rev?*%
%TF.SameCoordinates,Original*%
%TF.FileFunction,Legend,Top*%
%TF.FilePolarity,Positive*%
%FSLAX46Y46*%
G04 Gerber Fmt 4.6, Leading zero omitted, Abs format (unit mm)*
G04 Created by KiCad (PCBNEW 10.0.4) date 2026-07-09 14:33:48*
%MOMM*%
%LPD*%
G01*
G04 APERTURE LIST*
%ADD10C,0.120000*%
%ADD11C,0.100000*%
%ADD12C,0.254000*%
%ADD13C,0.160000*%
%ADD14C,0.150000*%
%ADD15C,0.200000*%
%TA.AperFunction,Profile*%
%ADD16C,0.050000*%
%TD*%
G04 APERTURE END LIST*
%TO.C,J6*%
D10*
X150700000Y-105100000D02*
X150700000Y-103100000D01*
X141300000Y-105070000D02*
X141300000Y-103070000D01*
%TO.C,J2*%
X174630000Y-146460000D02*
X174630000Y-145060000D01*
X174630000Y-146460000D02*
X160810000Y-146460000D01*
X174630000Y-136760000D02*
X174630000Y-142540000D01*
X174630000Y-134240000D02*
X174630000Y-131740000D01*
X174630000Y-131740000D02*
X160810000Y-131740000D01*
X160810000Y-146460000D02*
X160810000Y-145060000D01*
X160810000Y-142540000D02*
X160810000Y-136760000D01*
X160810000Y-134240000D02*
X160810000Y-131740000D01*
%TO.C,U10*%
D11*
X122550000Y-122500000D02*
X123000000Y-122050000D01*
X122550000Y-124150000D02*
X122550000Y-122500000D01*
X123000000Y-122050000D02*
X123850000Y-122050000D01*
X123850000Y-122050000D02*
X123850000Y-124150000D01*
X123850000Y-124150000D02*
X122550000Y-124150000D01*
D12*
X122650000Y-122050000D02*
G75*
G02*
X122450000Y-122050000I-100000J0D01*
G01*
X122450000Y-122050000D02*
G75*
G02*
X122650000Y-122050000I100000J0D01*
G01*
%TO.C,C43*%
D10*
X123307836Y-124640000D02*
X123092164Y-124640000D01*
X123307836Y-125360000D02*
X123092164Y-125360000D01*
%TO.C,TH2*%
X121977500Y-117254724D02*
X121977500Y-116745276D01*
X123022500Y-117254724D02*
X123022500Y-116745276D01*
%TO.C,TH1*%
X158790000Y-113160000D02*
X159410000Y-113160000D01*
X158790000Y-113160000D02*
G75*
G02*
X156950000Y-113160000I-920000J0D01*
G01*
X156950000Y-113160000D02*
G75*
G02*
X158790000Y-113160000I920000J0D01*
G01*
%TO.C,C23*%
X165160000Y-127007836D02*
X165160000Y-126792164D01*
X164440000Y-127007836D02*
X164440000Y-126792164D01*
%TO.C,C24*%
X163707836Y-129660000D02*
X163492164Y-129660000D01*
X163707836Y-128940000D02*
X163492164Y-128940000D01*
%TO.C,R31*%
X157080000Y-116286359D02*
X157080000Y-116593641D01*
X157840000Y-116286359D02*
X157840000Y-116593641D01*
%TO.C,R68*%
X146620000Y-137346359D02*
X146620000Y-137653641D01*
X147380000Y-137346359D02*
X147380000Y-137653641D01*
%TO.C,R38*%
X161096359Y-128820000D02*
X161403641Y-128820000D01*
X161096359Y-129580000D02*
X161403641Y-129580000D01*
%TO.C,R115*%
X193026359Y-123020000D02*
X193333641Y-123020000D01*
X193026359Y-123780000D02*
X193333641Y-123780000D01*
%TO.C,R51*%
X163920000Y-104646359D02*
X163920000Y-104953641D01*
X164680000Y-104646359D02*
X164680000Y-104953641D01*
%TO.C,U1*%
X167187500Y-102512500D02*
X170807500Y-102512500D01*
X167187500Y-105662500D02*
X167187500Y-105812500D01*
X167187500Y-105812500D02*
X170807500Y-105812500D01*
X170807500Y-102512500D02*
X170807500Y-102662500D01*
X170807500Y-105812500D02*
X170807500Y-105662500D01*
%TO.C,R93*%
X177753641Y-111870000D02*
X177446359Y-111870000D01*
X177753641Y-112630000D02*
X177446359Y-112630000D01*
%TO.C,R23*%
X162220000Y-115453641D02*
X162220000Y-115146359D01*
X162980000Y-115453641D02*
X162980000Y-115146359D01*
%TO.C,R75*%
X138720000Y-128343641D02*
X138720000Y-128036359D01*
X139480000Y-128343641D02*
X139480000Y-128036359D01*
%TO.C,FB1*%
X189790000Y-127962779D02*
X189790000Y-127637221D01*
X190810000Y-127962779D02*
X190810000Y-127637221D01*
%TO.C,R87*%
X164036359Y-124420000D02*
X164343641Y-124420000D01*
X164036359Y-125180000D02*
X164343641Y-125180000D01*
%TO.C,R14*%
X160053641Y-114420000D02*
X159746359Y-114420000D01*
X160053641Y-115180000D02*
X159746359Y-115180000D01*
%TO.C,R136*%
X135145000Y-119496359D02*
X135145000Y-119803641D01*
X135905000Y-119496359D02*
X135905000Y-119803641D01*
%TO.C,R39*%
X162446359Y-126520000D02*
X162753641Y-126520000D01*
X162446359Y-127280000D02*
X162753641Y-127280000D01*
%TO.C,R84*%
X181120000Y-110003641D02*
X181120000Y-109696359D01*
X181880000Y-110003641D02*
X181880000Y-109696359D01*
%TO.C,U8*%
X129950000Y-129890000D02*
X133500000Y-129890000D01*
X129950000Y-129940000D02*
X129950000Y-130640000D01*
X129950000Y-143640000D02*
X129950000Y-145690000D01*
X129950000Y-145690000D02*
X137500000Y-145690000D01*
X141700000Y-145690000D02*
X145250000Y-145690000D01*
X145250000Y-129890000D02*
X141650000Y-129890000D01*
X145250000Y-131390000D02*
X145250000Y-129890000D01*
X145250000Y-140440000D02*
X145250000Y-136640000D01*
X145250000Y-145690000D02*
X145250000Y-143640000D01*
X129950000Y-131440000D02*
X129450000Y-131440000D01*
X129950000Y-130940000D01*
X129950000Y-131440000D01*
G36*
X129950000Y-131440000D02*
G01*
X129450000Y-131440000D01*
X129950000Y-130940000D01*
X129950000Y-131440000D01*
G37*
%TO.C,R29*%
X143220000Y-110496359D02*
X143220000Y-110803641D01*
X143980000Y-110496359D02*
X143980000Y-110803641D01*
%TO.C,R22*%
X166520000Y-114446359D02*
X166520000Y-114753641D01*
X167280000Y-114446359D02*
X167280000Y-114753641D01*
%TO.C,R66*%
X147146359Y-142220000D02*
X147453641Y-142220000D01*
X147146359Y-142980000D02*
X147453641Y-142980000D01*
%TO.C,R57*%
X185046359Y-108020000D02*
X185353641Y-108020000D01*
X185046359Y-108780000D02*
X185353641Y-108780000D01*
%TO.C,R13*%
X153153641Y-128120000D02*
X152846359Y-128120000D01*
X153153641Y-128880000D02*
X152846359Y-128880000D01*
%TO.C,R100*%
X184320000Y-109646359D02*
X184320000Y-109953641D01*
X185080000Y-109646359D02*
X185080000Y-109953641D01*
%TO.C,D13*%
X134540000Y-104290000D02*
X134540000Y-105510000D01*
X134540000Y-104290000D02*
X135850000Y-104290000D01*
X134540000Y-105510000D02*
X135850000Y-105510000D01*
%TO.C,R36*%
X165253641Y-131380000D02*
X164946359Y-131380000D01*
X165253641Y-130620000D02*
X164946359Y-130620000D01*
%TO.C,J3*%
X124400000Y-136560000D02*
X125040000Y-136560000D01*
X124450000Y-133840000D02*
X127150000Y-133840000D01*
X125040000Y-136560000D02*
X125040000Y-137190000D01*
X127200000Y-136560000D02*
X126560000Y-136560000D01*
%TO.C,R111*%
X186320000Y-109953641D02*
X186320000Y-109646359D01*
X187080000Y-109953641D02*
X187080000Y-109646359D01*
%TO.C,R89*%
X163146359Y-125420000D02*
X163453641Y-125420000D01*
X163146359Y-126180000D02*
X163453641Y-126180000D01*
%TO.C,R30*%
X147320000Y-109246359D02*
X147320000Y-109553641D01*
X148080000Y-109246359D02*
X148080000Y-109553641D01*
%TO.C,R18*%
X162220000Y-112763641D02*
X162220000Y-112456359D01*
X162980000Y-112763641D02*
X162980000Y-112456359D01*
%TO.C,C25*%
X153840000Y-115192164D02*
X153840000Y-115407836D01*
X154560000Y-115192164D02*
X154560000Y-115407836D01*
%TO.C,R28*%
X151520000Y-103186359D02*
X151520000Y-103493641D01*
X152280000Y-103186359D02*
X152280000Y-103493641D01*
%TO.C,J7*%
X194100000Y-117565000D02*
X194740000Y-117565000D01*
X196260000Y-117565000D02*
X196260000Y-116935000D01*
X196850000Y-120285000D02*
X194150000Y-120285000D01*
X196900000Y-117565000D02*
X196260000Y-117565000D01*
%TO.C,R63*%
X147146359Y-145320000D02*
X147453641Y-145320000D01*
X147146359Y-146080000D02*
X147453641Y-146080000D01*
%TO.C,C21*%
X164357836Y-115790000D02*
X164142164Y-115790000D01*
X164357836Y-116510000D02*
X164142164Y-116510000D01*
%TO.C,R54*%
X177920000Y-125996359D02*
X177920000Y-126303641D01*
X178680000Y-125996359D02*
X178680000Y-126303641D01*
%TO.C,R99*%
X163546359Y-110120000D02*
X163853641Y-110120000D01*
X163546359Y-110880000D02*
X163853641Y-110880000D01*
%TO.C,R137*%
X194120000Y-110596359D02*
X194120000Y-110903641D01*
X194880000Y-110596359D02*
X194880000Y-110903641D01*
%TO.C,R110*%
X187380000Y-106993641D02*
X187380000Y-106686359D01*
X188140000Y-106993641D02*
X188140000Y-106686359D01*
%TO.C,R91*%
X177753641Y-109870000D02*
X177446359Y-109870000D01*
X177753641Y-110630000D02*
X177446359Y-110630000D01*
%TO.C,R85*%
X180120000Y-109696359D02*
X180120000Y-110003641D01*
X180880000Y-109696359D02*
X180880000Y-110003641D01*
%TO.C,C1*%
X128990000Y-115488748D02*
X128990000Y-116911252D01*
X130810000Y-115488748D02*
X130810000Y-116911252D01*
%TO.C,R117*%
X179920000Y-125996359D02*
X179920000Y-126303641D01*
X180680000Y-125996359D02*
X180680000Y-126303641D01*
%TO.C,R8*%
X132553641Y-119520000D02*
X132246359Y-119520000D01*
X132553641Y-120280000D02*
X132246359Y-120280000D01*
%TO.C,C20*%
X137740000Y-123607836D02*
X137740000Y-123392164D01*
X138460000Y-123607836D02*
X138460000Y-123392164D01*
%TO.C,R16*%
X166520000Y-111846359D02*
X166520000Y-112153641D01*
X167280000Y-111846359D02*
X167280000Y-112153641D01*
%TO.C,C18*%
X165990000Y-103867164D02*
X165990000Y-104082836D01*
X166710000Y-103867164D02*
X166710000Y-104082836D01*
%TO.C,R19*%
X164490000Y-114863641D02*
X164490000Y-114556359D01*
X165250000Y-114863641D02*
X165250000Y-114556359D01*
%TO.C,R20*%
X164390000Y-112456359D02*
X164390000Y-112763641D01*
X165150000Y-112456359D02*
X165150000Y-112763641D01*
%TO.C,C22*%
X166192164Y-126040000D02*
X166407836Y-126040000D01*
X166192164Y-126760000D02*
X166407836Y-126760000D01*
%TO.C,R119*%
X183320000Y-125996359D02*
X183320000Y-126303641D01*
X184080000Y-125996359D02*
X184080000Y-126303641D01*
%TO.C,R52*%
X146753641Y-123420000D02*
X146446359Y-123420000D01*
X146753641Y-124180000D02*
X146446359Y-124180000D01*
%TO.C,D5*%
X138265000Y-114040000D02*
X138265000Y-115350000D01*
X139485000Y-114040000D02*
X138265000Y-114040000D01*
X139485000Y-114040000D02*
X139485000Y-115350000D01*
%TO.C,J16*%
X125190000Y-121790000D02*
X126240000Y-121790000D01*
X125190000Y-122940000D02*
X125190000Y-121790000D01*
X129240000Y-124910000D02*
X126360000Y-124910000D01*
X129360000Y-121790000D02*
X129360000Y-120800000D01*
X130410000Y-121790000D02*
X129360000Y-121790000D01*
X130410000Y-122940000D02*
X130410000Y-121790000D01*
%TO.C,D6*%
X148940000Y-141690000D02*
X148940000Y-142910000D01*
X148940000Y-141690000D02*
X150250000Y-141690000D01*
X148940000Y-142910000D02*
X150250000Y-142910000D01*
%TO.C,C36*%
X180740000Y-103007836D02*
X180740000Y-102792164D01*
X181460000Y-103007836D02*
X181460000Y-102792164D01*
%TO.C,D10*%
D13*
X173168000Y-105661000D02*
G75*
G02*
X173008000Y-105661000I-80000J0D01*
G01*
X173008000Y-105661000D02*
G75*
G02*
X173168000Y-105661000I80000J0D01*
G01*
%TO.C,C41*%
D10*
X175692164Y-126240000D02*
X175907836Y-126240000D01*
X175692164Y-126960000D02*
X175907836Y-126960000D01*
%TO.C,D2*%
X150465000Y-128500000D02*
X150465000Y-130785000D01*
X150465000Y-130785000D02*
X151935000Y-130785000D01*
X151935000Y-130785000D02*
X151935000Y-128500000D01*
%TO.C,R48*%
X165970000Y-101921359D02*
X165970000Y-102228641D01*
X166730000Y-101921359D02*
X166730000Y-102228641D01*
%TO.C,R10*%
X156620000Y-129446359D02*
X156620000Y-129753641D01*
X157380000Y-129446359D02*
X157380000Y-129753641D01*
%TO.C,R24*%
X166546359Y-115720000D02*
X166853641Y-115720000D01*
X166546359Y-116480000D02*
X166853641Y-116480000D01*
%TO.C,D4*%
X123950000Y-107440000D02*
X123950000Y-113250000D01*
X128250000Y-107440000D02*
X123950000Y-107440000D01*
X128250000Y-107440000D02*
X128250000Y-113250000D01*
%TO.C,D11*%
D13*
X196580000Y-111390000D02*
G75*
G02*
X196420000Y-111390000I-80000J0D01*
G01*
X196420000Y-111390000D02*
G75*
G02*
X196580000Y-111390000I80000J0D01*
G01*
%TO.C,R76*%
D10*
X136120000Y-128343641D02*
X136120000Y-128036359D01*
X136880000Y-128343641D02*
X136880000Y-128036359D01*
%TO.C,C28*%
X191490000Y-132688748D02*
X191490000Y-134111252D01*
X193310000Y-132688748D02*
X193310000Y-134111252D01*
%TO.C,R122*%
X193046359Y-121020000D02*
X193353641Y-121020000D01*
X193046359Y-121780000D02*
X193353641Y-121780000D01*
%TO.C,U11*%
X169240000Y-110440000D02*
X173360000Y-110440000D01*
X169240000Y-110535000D02*
X169240000Y-110440000D01*
X169240000Y-115560000D02*
X169240000Y-115465000D01*
X173360000Y-110440000D02*
X173360000Y-110535000D01*
X173360000Y-115465000D02*
X173360000Y-115560000D01*
X173360000Y-115560000D02*
X169240000Y-115560000D01*
X168700000Y-110530000D02*
X168460000Y-110200000D01*
X168940000Y-110200000D01*
X168700000Y-110530000D01*
G36*
X168700000Y-110530000D02*
G01*
X168460000Y-110200000D01*
X168940000Y-110200000D01*
X168700000Y-110530000D01*
G37*
%TO.C,R127*%
X195143641Y-114170000D02*
X194836359Y-114170000D01*
X195143641Y-114930000D02*
X194836359Y-114930000D01*
%TO.C,J14*%
X183490000Y-100955000D02*
X183490000Y-101289970D01*
X183490000Y-102110030D02*
X183490000Y-102445000D01*
X188365000Y-100955000D02*
X183490000Y-100955000D01*
X188365000Y-100955000D02*
X188365000Y-101014435D01*
X188365000Y-102385565D02*
X188365000Y-102445000D01*
X188365000Y-102445000D02*
X183490000Y-102445000D01*
X189100000Y-100955000D02*
X189835000Y-100955000D01*
X189835000Y-100955000D02*
X189835000Y-101700000D01*
%TO.C,R37*%
X162446359Y-127520000D02*
X162753641Y-127520000D01*
X162446359Y-128280000D02*
X162753641Y-128280000D01*
%TO.C,R60*%
X182120000Y-109646359D02*
X182120000Y-109953641D01*
X182880000Y-109646359D02*
X182880000Y-109953641D01*
%TO.C,R74*%
X126920000Y-131653641D02*
X126920000Y-131346359D01*
X127680000Y-131653641D02*
X127680000Y-131346359D01*
%TO.C,R27*%
X165420000Y-112753641D02*
X165420000Y-112446359D01*
X166180000Y-112753641D02*
X166180000Y-112446359D01*
%TO.C,R4*%
X129946359Y-118920000D02*
X130253641Y-118920000D01*
X129946359Y-119680000D02*
X130253641Y-119680000D01*
%TO.C,TP4*%
X128410000Y-118330000D02*
G75*
G02*
X127010000Y-118330000I-700000J0D01*
G01*
X127010000Y-118330000D02*
G75*
G02*
X128410000Y-118330000I700000J0D01*
G01*
%TO.C,C6*%
X159382164Y-117870000D02*
X159597836Y-117870000D01*
X159382164Y-118590000D02*
X159597836Y-118590000D01*
%TO.C,R17*%
X163390000Y-114863641D02*
X163390000Y-114556359D01*
X164150000Y-114863641D02*
X164150000Y-114556359D01*
%TO.C,TP3*%
X140500000Y-112300000D02*
G75*
G02*
X139100000Y-112300000I-700000J0D01*
G01*
X139100000Y-112300000D02*
G75*
G02*
X140500000Y-112300000I700000J0D01*
G01*
%TO.C,R77*%
X135120000Y-128343641D02*
X135120000Y-128036359D01*
X135880000Y-128343641D02*
X135880000Y-128036359D01*
%TO.C,R107*%
X188320000Y-109953641D02*
X188320000Y-109646359D01*
X189080000Y-109953641D02*
X189080000Y-109646359D01*
%TO.C,R73*%
X128153641Y-139120000D02*
X127846359Y-139120000D01*
X128153641Y-139880000D02*
X127846359Y-139880000D01*
%TO.C,C39*%
X176447836Y-130310000D02*
X176232164Y-130310000D01*
X176447836Y-131030000D02*
X176232164Y-131030000D01*
%TO.C,R43*%
X185320000Y-109953641D02*
X185320000Y-109646359D01*
X186080000Y-109953641D02*
X186080000Y-109646359D01*
%TO.C,R118*%
X180920000Y-125996359D02*
X180920000Y-126303641D01*
X181680000Y-125996359D02*
X181680000Y-126303641D01*
%TO.C,R49*%
X165970000Y-106028641D02*
X165970000Y-105721359D01*
X166730000Y-106028641D02*
X166730000Y-105721359D01*
%TO.C,R50*%
X163920000Y-107253641D02*
X163920000Y-106946359D01*
X164680000Y-107253641D02*
X164680000Y-106946359D01*
%TO.C,R21*%
X165520000Y-114753641D02*
X165520000Y-114446359D01*
X166280000Y-114753641D02*
X166280000Y-114446359D01*
%TO.C,R125*%
X122910000Y-142456359D02*
X122910000Y-142763641D01*
X123670000Y-142456359D02*
X123670000Y-142763641D01*
%TO.C,R123*%
X195546359Y-122020000D02*
X195853641Y-122020000D01*
X195546359Y-122780000D02*
X195853641Y-122780000D01*
%TO.C,C42*%
X175240000Y-111492164D02*
X175240000Y-111707836D01*
X175960000Y-111492164D02*
X175960000Y-111707836D01*
%TO.C,R25*%
X165420000Y-110853641D02*
X165420000Y-110546359D01*
X166180000Y-110853641D02*
X166180000Y-110546359D01*
%TO.C,D9*%
D13*
X121380000Y-139200000D02*
G75*
G02*
X121220000Y-139200000I-80000J0D01*
G01*
X121220000Y-139200000D02*
G75*
G02*
X121380000Y-139200000I80000J0D01*
G01*
%TO.C,R35*%
D10*
X162246359Y-130620000D02*
X162553641Y-130620000D01*
X162246359Y-131380000D02*
X162553641Y-131380000D01*
%TO.C,R116*%
X178920000Y-125996359D02*
X178920000Y-126303641D01*
X179680000Y-125996359D02*
X179680000Y-126303641D01*
%TO.C,L9*%
X158690000Y-115440000D02*
X160910000Y-115440000D01*
X160910000Y-117560000D02*
X158690000Y-117560000D01*
%TO.C,R72*%
X128153641Y-138120000D02*
X127846359Y-138120000D01*
X128153641Y-138880000D02*
X127846359Y-138880000D01*
%TO.C,C19*%
X153107836Y-101140000D02*
X152892164Y-101140000D01*
X153107836Y-101860000D02*
X152892164Y-101860000D01*
%TO.C,U5*%
X164315000Y-116790000D02*
X165762147Y-116790000D01*
X164315000Y-116815000D02*
X164315000Y-116790000D01*
X164315000Y-118110000D02*
X164315000Y-118085000D01*
X165935000Y-118085000D02*
X165935000Y-118110000D01*
X165935000Y-118110000D02*
X164315000Y-118110000D01*
X166075000Y-116810000D02*
X165935000Y-116620000D01*
X166215000Y-116620000D01*
X166075000Y-116810000D01*
G36*
X166075000Y-116810000D02*
G01*
X165935000Y-116620000D01*
X166215000Y-116620000D01*
X166075000Y-116810000D01*
G37*
%TO.C,C33*%
X194872164Y-111880000D02*
X195087836Y-111880000D01*
X194872164Y-112600000D02*
X195087836Y-112600000D01*
%TO.C,U3*%
X153860000Y-120290000D02*
X154310000Y-120290000D01*
X153860000Y-120740000D02*
X153860000Y-120290000D01*
X153860000Y-127510000D02*
X153860000Y-127060000D01*
X154310000Y-127510000D02*
X153860000Y-127510000D01*
X160630000Y-120290000D02*
X161080000Y-120290000D01*
X161080000Y-120290000D02*
X161080000Y-120740000D01*
X161080000Y-127060000D02*
X161080000Y-127510000D01*
X161080000Y-127510000D02*
X160630000Y-127510000D01*
X153360000Y-121100000D02*
X153030000Y-121340000D01*
X153030000Y-120860000D01*
X153360000Y-121100000D01*
G36*
X153360000Y-121100000D02*
G01*
X153030000Y-121340000D01*
X153030000Y-120860000D01*
X153360000Y-121100000D01*
G37*
%TO.C,D7*%
X154040000Y-141690000D02*
X154040000Y-142910000D01*
X154040000Y-141690000D02*
X155350000Y-141690000D01*
X154040000Y-142910000D02*
X155350000Y-142910000D01*
%TO.C,U4*%
X131590000Y-115490000D02*
X131815000Y-115490000D01*
X131590000Y-118710000D02*
X131590000Y-115490000D01*
X131815000Y-118710000D02*
X131590000Y-118710000D01*
X134585000Y-115490000D02*
X134810000Y-115490000D01*
X134810000Y-115490000D02*
X134810000Y-118710000D01*
X134810000Y-118710000D02*
X134585000Y-118710000D01*
X134200000Y-114980000D02*
X133960000Y-114650000D01*
X134440000Y-114650000D01*
X134200000Y-114980000D01*
G36*
X134200000Y-114980000D02*
G01*
X133960000Y-114650000D01*
X134440000Y-114650000D01*
X134200000Y-114980000D01*
G37*
%TO.C,R5*%
X145146359Y-112620000D02*
X145453641Y-112620000D01*
X145146359Y-113380000D02*
X145453641Y-113380000D01*
%TO.C,R61*%
X148320000Y-109246359D02*
X148320000Y-109553641D01*
X149080000Y-109246359D02*
X149080000Y-109553641D01*
%TO.C,L2*%
X132115000Y-111650000D02*
X134335000Y-111650000D01*
X134335000Y-114750000D02*
X132115000Y-114750000D01*
%TO.C,R97*%
X177753641Y-117870000D02*
X177446359Y-117870000D01*
X177753641Y-118630000D02*
X177446359Y-118630000D01*
%TO.C,R121*%
X195546359Y-121020000D02*
X195853641Y-121020000D01*
X195546359Y-121780000D02*
X195853641Y-121780000D01*
%TO.C,J5*%
X148710000Y-143420000D02*
X148710000Y-146180000D01*
X156440000Y-143420000D02*
X148710000Y-143420000D01*
X156440000Y-143420000D02*
X156440000Y-146180000D01*
X156440000Y-146180000D02*
X148710000Y-146180000D01*
X157710000Y-143420000D02*
X159090000Y-143420000D01*
X159090000Y-143420000D02*
X159090000Y-144800000D01*
%TO.C,C26*%
X191240000Y-129007836D02*
X191240000Y-128792164D01*
X191960000Y-129007836D02*
X191960000Y-128792164D01*
%TO.C,C2*%
X136190000Y-114711252D02*
X136190000Y-113288748D01*
X138010000Y-114711252D02*
X138010000Y-113288748D01*
%TO.C,SW1*%
X140390000Y-114415000D02*
X140390000Y-119335000D01*
X140390000Y-114415000D02*
X140640000Y-114415000D01*
X140390000Y-119335000D02*
X140640000Y-119335000D01*
X143860000Y-114415000D02*
X144110000Y-114415000D01*
X143860000Y-119335000D02*
X144110000Y-119335000D01*
X144110000Y-119335000D02*
X144110000Y-114415000D01*
%TO.C,R2*%
X142170000Y-110496359D02*
X142170000Y-110803641D01*
X142930000Y-110496359D02*
X142930000Y-110803641D01*
%TO.C,C40*%
X159392164Y-118840000D02*
X159607836Y-118840000D01*
X159392164Y-119560000D02*
X159607836Y-119560000D01*
%TO.C,C11*%
X163192164Y-123440000D02*
X163407836Y-123440000D01*
X163192164Y-124160000D02*
X163407836Y-124160000D01*
%TO.C,R67*%
X147146359Y-140720000D02*
X147453641Y-140720000D01*
X147146359Y-141480000D02*
X147453641Y-141480000D01*
%TO.C,C10*%
X163192164Y-122440000D02*
X163407836Y-122440000D01*
X163192164Y-123160000D02*
X163407836Y-123160000D01*
%TO.C,R41*%
X152313641Y-121120000D02*
X152006359Y-121120000D01*
X152313641Y-121880000D02*
X152006359Y-121880000D01*
%TO.C,C27*%
X192340000Y-129007836D02*
X192340000Y-128792164D01*
X193060000Y-129007836D02*
X193060000Y-128792164D01*
%TO.C,R9*%
X161520000Y-118953641D02*
X161520000Y-118646359D01*
X162280000Y-118953641D02*
X162280000Y-118646359D01*
%TO.C,R130*%
X180446359Y-106473000D02*
X180753641Y-106473000D01*
X180446359Y-107233000D02*
X180753641Y-107233000D01*
%TO.C,R12*%
X158720000Y-129446359D02*
X158720000Y-129753641D01*
X159480000Y-129446359D02*
X159480000Y-129753641D01*
%TO.C,C29*%
X189592164Y-125240000D02*
X189807836Y-125240000D01*
X189592164Y-125960000D02*
X189807836Y-125960000D01*
%TO.C,R135*%
X135145000Y-117146359D02*
X135145000Y-117453641D01*
X135905000Y-117146359D02*
X135905000Y-117453641D01*
%TO.C,R108*%
X188420000Y-107003641D02*
X188420000Y-106696359D01*
X189180000Y-107003641D02*
X189180000Y-106696359D01*
%TO.C,J17*%
X152990000Y-136490000D02*
X154040000Y-136490000D01*
X152990000Y-137640000D02*
X152990000Y-136490000D01*
X157040000Y-139610000D02*
X154160000Y-139610000D01*
X157160000Y-136490000D02*
X157160000Y-135500000D01*
X158210000Y-136490000D02*
X157160000Y-136490000D01*
X158210000Y-137640000D02*
X158210000Y-136490000D01*
%TO.C,R81*%
X123636359Y-139620000D02*
X123943641Y-139620000D01*
X123636359Y-140380000D02*
X123943641Y-140380000D01*
%TO.C,U13*%
X170015000Y-116440000D02*
X170710000Y-116440000D01*
X170015000Y-124660000D02*
X170015000Y-116440000D01*
X170710000Y-124660000D02*
X170015000Y-124660000D01*
X175540000Y-116440000D02*
X176235000Y-116440000D01*
X176235000Y-116440000D02*
X176235000Y-124660000D01*
X176235000Y-124660000D02*
X175540000Y-124660000D01*
X175035000Y-116210000D02*
X174795000Y-115880000D01*
X175275000Y-115880000D01*
X175035000Y-116210000D01*
G36*
X175035000Y-116210000D02*
G01*
X174795000Y-115880000D01*
X175275000Y-115880000D01*
X175035000Y-116210000D01*
G37*
%TO.C,C38*%
X181740000Y-102707836D02*
X181740000Y-102492164D01*
X182460000Y-102707836D02*
X182460000Y-102492164D01*
%TO.C,R62*%
X144220000Y-110496359D02*
X144220000Y-110803641D01*
X144980000Y-110496359D02*
X144980000Y-110803641D01*
%TO.C,R90*%
X149520000Y-126553641D02*
X149520000Y-126246359D01*
X150280000Y-126553641D02*
X150280000Y-126246359D01*
%TO.C,C5*%
X151847836Y-124930000D02*
X151632164Y-124930000D01*
X151847836Y-125650000D02*
X151632164Y-125650000D01*
%TO.C,R42*%
X166520000Y-130653641D02*
X166520000Y-130346359D01*
X167280000Y-130653641D02*
X167280000Y-130346359D01*
%TO.C,C3*%
X162540000Y-118692164D02*
X162540000Y-118907836D01*
X163260000Y-118692164D02*
X163260000Y-118907836D01*
%TO.C,R92*%
X177753641Y-110870000D02*
X177446359Y-110870000D01*
X177753641Y-111630000D02*
X177446359Y-111630000D01*
%TO.C,Y1*%
X153540000Y-131090000D02*
X153540000Y-134510000D01*
X153540000Y-134510000D02*
X157660000Y-134510000D01*
%TO.C,R53*%
X146753641Y-122420000D02*
X146446359Y-122420000D01*
X146753641Y-123180000D02*
X146446359Y-123180000D01*
%TO.C,D3*%
X128950000Y-111310000D02*
X128950000Y-105800000D01*
X128950000Y-111310000D02*
X132250000Y-111310000D01*
X132250000Y-111310000D02*
X132250000Y-105800000D01*
%TO.C,R79*%
X139720000Y-128353641D02*
X139720000Y-128046359D01*
X140480000Y-128353641D02*
X140480000Y-128046359D01*
%TO.C,C30*%
X177640000Y-113807836D02*
X177640000Y-113592164D01*
X178360000Y-113807836D02*
X178360000Y-113592164D01*
%TO.C,R65*%
X147146359Y-143220000D02*
X147453641Y-143220000D01*
X147146359Y-143980000D02*
X147453641Y-143980000D01*
%TO.C,R114*%
X193046359Y-124020000D02*
X193353641Y-124020000D01*
X193046359Y-124780000D02*
X193353641Y-124780000D01*
%TO.C,C34*%
X175492164Y-125240000D02*
X175707836Y-125240000D01*
X175492164Y-125960000D02*
X175707836Y-125960000D01*
%TO.C,R3*%
X142203641Y-111770000D02*
X141896359Y-111770000D01*
X142203641Y-112530000D02*
X141896359Y-112530000D01*
%TO.C,R124*%
X192120000Y-113703641D02*
X192120000Y-113396359D01*
X192880000Y-113703641D02*
X192880000Y-113396359D01*
%TO.C,C16*%
X162292164Y-119840000D02*
X162507836Y-119840000D01*
X162292164Y-120560000D02*
X162507836Y-120560000D01*
%TO.C,C7*%
X152090000Y-132659420D02*
X152090000Y-132940580D01*
X153110000Y-132659420D02*
X153110000Y-132940580D01*
%TO.C,R82*%
X122900000Y-138346359D02*
X122900000Y-138653641D01*
X123660000Y-138346359D02*
X123660000Y-138653641D01*
%TO.C,D12*%
X134260000Y-104290000D02*
X132950000Y-104290000D01*
X134260000Y-105510000D02*
X132950000Y-105510000D01*
X134260000Y-105510000D02*
X134260000Y-104290000D01*
%TO.C,R33*%
X149630000Y-122146359D02*
X149630000Y-122453641D01*
X150390000Y-122146359D02*
X150390000Y-122453641D01*
%TO.C,R96*%
X177753641Y-116870000D02*
X177446359Y-116870000D01*
X177753641Y-117630000D02*
X177446359Y-117630000D01*
%TO.C,J10*%
X173840000Y-104550000D02*
X173840000Y-101850000D01*
X176560000Y-101800000D02*
X176560000Y-102440000D01*
X176560000Y-103960000D02*
X177190000Y-103960000D01*
X176560000Y-104600000D02*
X176560000Y-103960000D01*
%TO.C,D1*%
X132990000Y-107750000D02*
X132990000Y-111050000D01*
X132990000Y-107750000D02*
X138500000Y-107750000D01*
X132990000Y-111050000D02*
X138500000Y-111050000D01*
%TO.C,C4*%
X164440000Y-121992164D02*
X164440000Y-122207836D01*
X165160000Y-121992164D02*
X165160000Y-122207836D01*
%TO.C,R40*%
X151883641Y-125920000D02*
X151576359Y-125920000D01*
X151883641Y-126680000D02*
X151576359Y-126680000D01*
%TO.C,R128*%
X194143641Y-115310000D02*
X193836359Y-115310000D01*
X194143641Y-116070000D02*
X193836359Y-116070000D01*
%TO.C,R94*%
X177753641Y-114870000D02*
X177446359Y-114870000D01*
X177753641Y-115630000D02*
X177446359Y-115630000D01*
%TO.C,R126*%
X123933641Y-140720000D02*
X123626359Y-140720000D01*
X123933641Y-141480000D02*
X123626359Y-141480000D01*
%TO.C,C12*%
X154940000Y-115192164D02*
X154940000Y-115407836D01*
X155660000Y-115192164D02*
X155660000Y-115407836D01*
%TO.C,R113*%
X193046359Y-125020000D02*
X193353641Y-125020000D01*
X193046359Y-125780000D02*
X193353641Y-125780000D01*
%TO.C,R7*%
X134920000Y-106653641D02*
X134920000Y-106346359D01*
X135680000Y-106653641D02*
X135680000Y-106346359D01*
%TO.C,SW3*%
X178430000Y-127530000D02*
X178430000Y-127280000D01*
X178430000Y-131000000D02*
X178430000Y-130750000D01*
X178430000Y-131000000D02*
X183350000Y-131000000D01*
X183350000Y-127280000D02*
X178430000Y-127280000D01*
X183350000Y-127530000D02*
X183350000Y-127280000D01*
X183350000Y-131000000D02*
X183350000Y-130750000D01*
%TO.C,R80*%
X193046359Y-122020000D02*
X193353641Y-122020000D01*
X193046359Y-122780000D02*
X193353641Y-122780000D01*
%TO.C,D8*%
X151440000Y-141690000D02*
X151440000Y-142910000D01*
X151440000Y-141690000D02*
X152750000Y-141690000D01*
X151440000Y-142910000D02*
X152750000Y-142910000D01*
%TO.C,SW2*%
X165560000Y-119530000D02*
X165560000Y-124450000D01*
X165560000Y-119530000D02*
X165810000Y-119530000D01*
X165560000Y-124450000D02*
X165810000Y-124450000D01*
X169030000Y-119530000D02*
X169280000Y-119530000D01*
X169030000Y-124450000D02*
X169280000Y-124450000D01*
X169280000Y-124450000D02*
X169280000Y-119530000D01*
%TO.C,R98*%
X177753641Y-118870000D02*
X177446359Y-118870000D01*
X177753641Y-119630000D02*
X177446359Y-119630000D01*
%TO.C,R120*%
X184320000Y-126006359D02*
X184320000Y-126313641D01*
X185080000Y-126006359D02*
X185080000Y-126313641D01*
%TO.C,R47*%
X151853641Y-123920000D02*
X151546359Y-123920000D01*
X151853641Y-124680000D02*
X151546359Y-124680000D01*
%TO.C,R45*%
X127920000Y-131653641D02*
X127920000Y-131346359D01*
X128680000Y-131653641D02*
X128680000Y-131346359D01*
%TO.C,R69*%
X140720000Y-128343641D02*
X140720000Y-128036359D01*
X141480000Y-128343641D02*
X141480000Y-128036359D01*
%TO.C,R1*%
X168646359Y-116520000D02*
X168953641Y-116520000D01*
X168646359Y-117280000D02*
X168953641Y-117280000D01*
%TO.C,R109*%
X187320000Y-109953641D02*
X187320000Y-109646359D01*
X188080000Y-109953641D02*
X188080000Y-109646359D01*
%TO.C,R56*%
X182320000Y-126303641D02*
X182320000Y-125996359D01*
X183080000Y-126303641D02*
X183080000Y-125996359D01*
%TO.C,C17*%
X168260000Y-130607836D02*
X168260000Y-130392164D01*
X167540000Y-130607836D02*
X167540000Y-130392164D01*
%TO.C,R112*%
X187046359Y-107950000D02*
X187353641Y-107950000D01*
X187046359Y-108710000D02*
X187353641Y-108710000D01*
%TO.C,R59*%
X176424359Y-106452000D02*
X176731641Y-106452000D01*
X176424359Y-107212000D02*
X176731641Y-107212000D01*
%TO.C,R106*%
X177853641Y-123270000D02*
X177546359Y-123270000D01*
X177853641Y-124030000D02*
X177546359Y-124030000D01*
%TO.C,R55*%
X177853641Y-124270000D02*
X177546359Y-124270000D01*
X177853641Y-125030000D02*
X177546359Y-125030000D01*
%TO.C,U6*%
X179640000Y-111790000D02*
X190960000Y-111790000D01*
X179640000Y-123110000D02*
X179640000Y-111790000D01*
X190960000Y-111790000D02*
X190960000Y-124110000D01*
X190960000Y-124110000D02*
X180640000Y-124110000D01*
X179640000Y-124110000D02*
X179640000Y-124610000D01*
X179140000Y-124110000D01*
X179640000Y-124110000D01*
G36*
X179640000Y-124610000D02*
G01*
X179140000Y-124110000D01*
X179640000Y-124110000D01*
X179640000Y-124610000D01*
G37*
%TO.C,R11*%
X157720000Y-129446359D02*
X157720000Y-129753641D01*
X158480000Y-129446359D02*
X158480000Y-129753641D01*
%TO.C,R46*%
X151853641Y-122920000D02*
X151546359Y-122920000D01*
X151853641Y-123680000D02*
X151546359Y-123680000D01*
%TO.C,U7*%
X165500000Y-127100000D02*
X166000000Y-127100000D01*
X165500000Y-127600000D02*
X165500000Y-127100000D01*
X165500000Y-128800000D02*
X165500000Y-129100000D01*
X165500000Y-129300000D02*
X165500000Y-129300000D01*
X166000000Y-127100000D02*
X166000000Y-127100000D01*
X166000000Y-129300000D02*
X165700000Y-129300000D01*
X167200000Y-127100000D02*
X167700000Y-127100000D01*
X167200000Y-129300000D02*
X167200000Y-129300000D01*
X167700000Y-127100000D02*
X167700000Y-127600000D01*
X167700000Y-127600000D02*
X167700000Y-127600000D01*
X167700000Y-128800000D02*
X167700000Y-129300000D01*
X167700000Y-129300000D02*
X167200000Y-129300000D01*
X165500000Y-129300000D02*
X165500000Y-129660000D01*
X165140000Y-129300000D01*
X165500000Y-129300000D01*
G36*
X165500000Y-129660000D02*
G01*
X165140000Y-129300000D01*
X165500000Y-129300000D01*
X165500000Y-129660000D01*
G37*
%TO.C,C14*%
X152297836Y-120140000D02*
X152082164Y-120140000D01*
X152297836Y-120860000D02*
X152082164Y-120860000D01*
%TO.C,R44*%
X168646359Y-117520000D02*
X168953641Y-117520000D01*
X168646359Y-118280000D02*
X168953641Y-118280000D01*
%TO.C,R139*%
X176360000Y-129016359D02*
X176360000Y-129323641D01*
X177120000Y-129016359D02*
X177120000Y-129323641D01*
%TO.C,C8*%
X158090000Y-132559420D02*
X158090000Y-132840580D01*
X159110000Y-132559420D02*
X159110000Y-132840580D01*
%TO.C,R70*%
X128153641Y-141120000D02*
X127846359Y-141120000D01*
X128153641Y-141880000D02*
X127846359Y-141880000D01*
%TO.C,R138*%
X186576359Y-130270000D02*
X186883641Y-130270000D01*
X186576359Y-131030000D02*
X186883641Y-131030000D01*
%TO.C,R15*%
X147820000Y-137346359D02*
X147820000Y-137653641D01*
X148580000Y-137346359D02*
X148580000Y-137653641D01*
%TO.C,R64*%
X147146359Y-144220000D02*
X147453641Y-144220000D01*
X147146359Y-144980000D02*
X147453641Y-144980000D01*
%TO.C,J8*%
X129180000Y-103580000D02*
X129180000Y-102200000D01*
X130560000Y-103580000D02*
X129180000Y-103580000D01*
X131830000Y-100820000D02*
X139560000Y-100820000D01*
X131830000Y-103580000D02*
X131830000Y-100820000D01*
X131830000Y-103580000D02*
X139560000Y-103580000D01*
X139560000Y-103580000D02*
X139560000Y-100820000D01*
%TO.C,R95*%
X177753641Y-115870000D02*
X177446359Y-115870000D01*
X177753641Y-116630000D02*
X177446359Y-116630000D01*
%TO.C,R88*%
X153253641Y-129120000D02*
X152946359Y-129120000D01*
X153253641Y-129880000D02*
X152946359Y-129880000D01*
%TO.C,U9*%
D14*
X140175000Y-121550000D02*
X140175000Y-121375000D01*
X140175000Y-124625000D02*
X140175000Y-124450000D01*
X143425000Y-121375000D02*
X140175000Y-121375000D01*
X143425000Y-121550000D02*
X143425000Y-121375000D01*
X143425000Y-124625000D02*
X140175000Y-124625000D01*
X143425000Y-124625000D02*
X143425000Y-124450000D01*
D10*
X143900000Y-124450000D02*
X144140000Y-124780000D01*
X143660000Y-124780000D01*
X143900000Y-124450000D01*
G36*
X144140000Y-124780000D02*
G01*
X143660000Y-124780000D01*
X143900000Y-124450000D01*
X144140000Y-124780000D01*
G37*
%TO.C,U2*%
D11*
X154393755Y-109606245D02*
X154393755Y-109606245D01*
X154464466Y-109535534D02*
X154464466Y-109535534D01*
D15*
X154796806Y-109203194D02*
X154796806Y-109203194D01*
X157745442Y-110497199D02*
X157745442Y-111062885D01*
X157745442Y-111062885D02*
X158593970Y-111062885D01*
X158593970Y-111062885D02*
X158593970Y-110497199D01*
X161259762Y-102740238D02*
X161259762Y-102740238D01*
D11*
X154393755Y-109606245D02*
G75*
G02*
X154464465Y-109535535I35355J35355D01*
G01*
X154464466Y-109535534D02*
G75*
G02*
X154393754Y-109606246I-35357J-35355D01*
G01*
D15*
X154796806Y-109203194D02*
G75*
G02*
X161259762Y-102740238I3231478J3231478D01*
G01*
X161259762Y-102740238D02*
G75*
G02*
X154796806Y-109203194I-3231478J-3231478D01*
G01*
%TO.C,R26*%
D10*
X163320000Y-112456359D02*
X163320000Y-112763641D01*
X164080000Y-112456359D02*
X164080000Y-112763641D01*
%TO.C,R32*%
X156080000Y-116286359D02*
X156080000Y-116593641D01*
X156840000Y-116286359D02*
X156840000Y-116593641D01*
%TO.C,R129*%
X178720000Y-106156359D02*
X178720000Y-106463641D01*
X179480000Y-106156359D02*
X179480000Y-106463641D01*
%TO.C,R86*%
X178820000Y-110003641D02*
X178820000Y-109696359D01*
X179580000Y-110003641D02*
X179580000Y-109696359D01*
%TO.C,C13*%
X155540000Y-129092164D02*
X155540000Y-129307836D01*
X156260000Y-129092164D02*
X156260000Y-129307836D01*
%TO.C,R83*%
X121920000Y-137336359D02*
X121920000Y-137643641D01*
X122680000Y-137336359D02*
X122680000Y-137643641D01*
%TO.C,C31*%
X176640000Y-113807836D02*
X176640000Y-113592164D01*
X177360000Y-113807836D02*
X177360000Y-113592164D01*
%TO.C,J1*%
X177240000Y-131990000D02*
X177240000Y-135240000D01*
X177240000Y-131990000D02*
X179320000Y-131990000D01*
X177240000Y-137560000D02*
X177240000Y-144040000D01*
X177960000Y-146210000D02*
X188440000Y-146210000D01*
X179680000Y-131420000D02*
X180380000Y-131420000D01*
X187090000Y-131990000D02*
X189160000Y-131990000D01*
X189160000Y-131990000D02*
X189160000Y-135240000D01*
X189160000Y-137560000D02*
X189160000Y-144040000D01*
%TO.C,C35*%
X174728000Y-107204164D02*
X174728000Y-107419836D01*
X175448000Y-107204164D02*
X175448000Y-107419836D01*
%TO.C,R71*%
X128153641Y-140120000D02*
X127846359Y-140120000D01*
X128153641Y-140880000D02*
X127846359Y-140880000D01*
%TO.C,C9*%
X153940000Y-117407836D02*
X153940000Y-117192164D01*
X154660000Y-117407836D02*
X154660000Y-117192164D01*
%TO.C,U14*%
D15*
X181988000Y-104610000D02*
X181988000Y-104610000D01*
X182088000Y-104610000D02*
X182088000Y-104610000D01*
X181988000Y-104610000D02*
G75*
G02*
X182088000Y-104610000I50000J0D01*
G01*
X182088000Y-104610000D02*
G75*
G02*
X181988000Y-104610000I-50000J0D01*
G01*
%TO.C,R105*%
D10*
X177853641Y-122270000D02*
X177546359Y-122270000D01*
X177853641Y-123030000D02*
X177546359Y-123030000D01*
%TO.C,C32*%
X195572164Y-123040000D02*
X195787836Y-123040000D01*
X195572164Y-123760000D02*
X195787836Y-123760000D01*
%TO.C,J15*%
X169190000Y-126690000D02*
X170240000Y-126690000D01*
X169190000Y-127840000D02*
X169190000Y-126690000D01*
X173240000Y-129810000D02*
X170360000Y-129810000D01*
X173360000Y-126690000D02*
X173360000Y-125700000D01*
X174410000Y-126690000D02*
X173360000Y-126690000D01*
X174410000Y-127840000D02*
X174410000Y-126690000D01*
%TO.C,R34*%
X149630000Y-124553641D02*
X149630000Y-124246359D01*
X150390000Y-124553641D02*
X150390000Y-124246359D01*
%TO.C,C15*%
X154940000Y-117407836D02*
X154940000Y-117192164D01*
X155660000Y-117407836D02*
X155660000Y-117192164D01*
%TO.C,TP2*%
X148140000Y-134900000D02*
G75*
G02*
X146740000Y-134900000I-700000J0D01*
G01*
X146740000Y-134900000D02*
G75*
G02*
X148140000Y-134900000I700000J0D01*
G01*
%TO.C,R131*%
X184640000Y-130343641D02*
X184640000Y-130036359D01*
X185400000Y-130343641D02*
X185400000Y-130036359D01*
%TO.C,R6*%
X133556359Y-106620000D02*
X133863641Y-106620000D01*
X133556359Y-107380000D02*
X133863641Y-107380000D01*
%TO.C,R58*%
X183320000Y-109953641D02*
X183320000Y-109646359D01*
X184080000Y-109953641D02*
X184080000Y-109646359D01*
%TO.C,C37*%
X180740000Y-104907836D02*
X180740000Y-104692164D01*
X181460000Y-104907836D02*
X181460000Y-104692164D01*
%TO.C,U12*%
X145130000Y-113655000D02*
X153350000Y-113655000D01*
X145130000Y-114350000D02*
X145130000Y-113655000D01*
X145130000Y-119875000D02*
X145130000Y-119180000D01*
X153350000Y-113655000D02*
X153350000Y-114350000D01*
X153350000Y-119180000D02*
X153350000Y-119875000D01*
X153350000Y-119875000D02*
X145130000Y-119875000D01*
X144900000Y-114855000D02*
X144570000Y-115095000D01*
X144570000Y-114615000D01*
X144900000Y-114855000D01*
G36*
X144900000Y-114855000D02*
G01*
X144570000Y-115095000D01*
X144570000Y-114615000D01*
X144900000Y-114855000D01*
G37*
%TO.C,R78*%
X134120000Y-128343641D02*
X134120000Y-128036359D01*
X134880000Y-128343641D02*
X134880000Y-128036359D01*
%TD*%
D16*
X100000000Y-100000000D02*
X215000000Y-100000000D01*
X215000000Y-147000000D01*
X100000000Y-147000000D01*
X100000000Y-100000000D01*
M02*
